<svg width="160" height="15" viewBox="0 0 160 15" fill="none" xmlns="http://www.w3.org/2000/svg">
<path fill-rule="evenodd" clip-rule="evenodd" d="M99.793 7.30164H102.597C104.056 7.30164 105.2 6.50751 105.2 5.27162C105.2 4.05861 104.056 3.28663 102.597 3.28663H99.793V7.30164ZM105.581 15L102.688 10.6533H102.664H99.793V15H96V0H102.664C106.456 0 108.99 2.03002 108.99 5.27162C108.99 7.23588 108.026 8.82202 106.412 9.74911L110 15H105.581Z" fill="white"/>
<path fill-rule="evenodd" clip-rule="evenodd" d="M115.617 3.24319V5.97813H122.08V9.15483H115.617V11.7568H123V15H112V0H123V3.24319H115.617Z" fill="white"/>
<path fill-rule="evenodd" clip-rule="evenodd" d="M135.259 7.45675C135.259 5.13939 133.4 3.35382 130.973 3.35382H128.697V11.6462H130.973C133.4 11.6462 135.259 9.83846 135.259 7.45675ZM139 7.45675C139 11.9114 135.654 15 130.973 15H125V0H130.973C135.654 0 139 3.06576 139 7.45675Z" fill="white"/>
<path fill-rule="evenodd" clip-rule="evenodd" d="M142 15H146V0H142V15Z" fill="white"/>
<path fill-rule="evenodd" clip-rule="evenodd" d="M160 3.33111H155.806V15H152.193V3.33111H148V0H160V3.33111Z" fill="white"/>
<path fill-rule="evenodd" clip-rule="evenodd" d="M90.1336 9.52449C89.5701 10.856 88.3947 11.6436 86.7538 11.6436C84.3568 11.6436 82.6928 9.90246 82.6928 7.50103C82.6928 5.09891 84.3568 3.35774 86.7538 3.35774C88.3947 3.35774 89.5701 4.14674 90.1336 5.47689H94C93.2411 2.17699 90.4822 0 86.7769 0C82.3469 0 79 3.14499 79 7.50103C79 11.8564 82.3469 15 86.7769 15C90.4836 15 93.2411 12.8244 94 9.52449H90.1336Z" fill="white"/>
<path fill-rule="evenodd" clip-rule="evenodd" d="M14 0V15H10.168V9.37473H3.85338V15H0V0H3.85338V6.02273H10.168V0H14Z" fill="white"/>
<path fill-rule="evenodd" clip-rule="evenodd" d="M56 15H52.315V7.47891L49.0235 12.6174V12.6395H46.9751V12.6174L43.6624 7.43388L43.6836 15H40V0H42.7462L48 8.00791L53.253 0H56V15Z" fill="white"/>
<path fill-rule="evenodd" clip-rule="evenodd" d="M62.6158 3.24262V5.97841H69.0803V9.15527H62.6158V11.7574H70V15H59V0H70V3.24262H62.6158Z" fill="white"/>
<path fill-rule="evenodd" clip-rule="evenodd" d="M26.5014 0C20.7018 0 16 4.38715 16 9.80211C16 11.7112 16.5856 13.4936 17.5968 15H22.662C21.1239 13.8599 20.1259 12.057 20.1259 10.0219C20.1259 6.57217 22.98 3.77568 26.5 3.77568C30.0214 3.77568 32.8755 6.57217 32.8755 10.0219C32.8755 12.057 31.8775 13.8599 30.3394 15H35.4046C36.4165 13.4936 37 11.7112 37 9.80211C37 4.38715 32.301 0 26.5014 0Z" fill="white"/>
<path fill-rule="evenodd" clip-rule="evenodd" d="M23 11C23.5022 12.7464 24.8787 14 26.5004 14C28.122 14 29.4992 12.7464 30 11H23Z" fill="white"/>
</svg>
