<svg width="141" height="25" viewBox="0 0 141 25" fill="none" xmlns="http://www.w3.org/2000/svg">
<path d="M68.8727 0.5H62.9454V24.5H68.2182V8.6818H68.5455L74.146 17.809H76.945L82.546 8.6818H82.873V24.5H88.182V0.5H82.364L75.673 11.3727L68.8727 0.5ZM99.2 0.5H93.854V24.5H99.2V14.2454H101.854L109.236 24.5H116.182L106.327 11.7L115.309 0.5H108.654L101.818 9.3364L99.2 9.6273V0.5ZM139.236 0.5H120.036V24.5H130.945C132.327 24.5 133.563 24.3182 134.727 23.991C135.89 23.6272 136.873 23.1182 137.709 22.5C138.546 21.8091 139.2 21.0091 139.709 20.0636C140.145 19.0454 140.4 17.991 140.4 16.7182C140.4 15.4454 140.145 14.3182 139.709 13.3C139.2 12.3545 138.546 11.5545 137.745 10.9364C136.873 10.2818 135.89 9.8091 134.727 9.5182C133.563 9.1909 132.327 9.0455 130.945 9.0455H125.382V5.3364H134.473L139.236 0.5ZM125.418 19.7V13.7364H131.127C132.363 13.7364 133.309 13.9909 133.963 14.5364C134.654 15.0454 134.982 15.7364 134.982 16.7182C134.982 17.6272 134.654 18.3182 133.963 18.9C133.309 19.4091 132.29 19.7 130.981 19.7H125.418ZM29.8546 0.5364L17.8546 12.5L11.8909 6.5L17.8909 0.5H5.8909L0 6.5L18 24.5L33.3455 9.0091H42.5454L51.0182 0.5364H29.8546Z" fill="white"/>
<path d="M20.4727 24.2457L22.1819 22.5366L34.0363 10.6821H51.0546L42.5454 19.1549H37.5272L32.5091 24.2457H20.4727Z" fill="white"/>
</svg>
