<svg width="134" height="22" viewBox="0 0 134 22" fill="none" xmlns="http://www.w3.org/2000/svg">
<path fill-rule="evenodd" clip-rule="evenodd" d="M0 13.2483C0 17.431 2.34819 21.649 7.6065 21.649C12.8601 21.649 15.213 17.431 15.213 13.2483C15.213 10.3911 14.2481 7.10106 12.6376 4.44362C11.0714 1.87741 9.18965 0.351013 7.6065 0.351013C6.01883 0.351013 4.13621 1.87741 2.58365 4.44362C0.965572 7.10106 0 10.3911 0 13.2483ZM54.0055 6.62613H48.681V1.49191H65.0349V6.62613H59.7104V20.5079H54.0055V6.62613ZM77.2047 6.62635H85.5724V1.49191H77.2054C69.5173 1.49191 65.4128 5.31417 65.4128 11C65.4128 16.6859 69.5173 20.5082 77.2054 20.5082H85.5724V15.3737H77.2047C73.6475 15.3737 71.3077 14.102 71.3077 11C71.3077 7.89804 73.6475 6.62635 77.2047 6.62635V6.62635ZM34.0369 12.8424L37.0782 1.49191H47.1595V20.5082H41.4545V5.03063L37.3075 20.5082H30.7663L26.622 5.04046L26.6218 20.5082H20.9171V1.49191H30.9954L34.0369 12.8424ZM99.7794 7.00381H97.7676V8.86407H99.7794C100.289 8.86407 100.592 8.60221 100.592 8.11987V7.77551C100.592 7.2793 100.331 7.00381 99.7794 7.00381V7.00381ZM100.289 10.9998H95.0805V1.49191H102.742V3.76563H97.7676V5.00559H100.289C102.397 5.00559 103.417 6.053 103.417 7.89939C103.417 9.84212 102.397 10.9998 100.289 10.9998V10.9998ZM109.617 7.11405H107.495L108.556 3.60039L109.617 7.11405ZM113.696 11L110.76 1.49191H106.765L103.83 11H106.337L106.875 9.18115H110.238L110.788 11H113.696ZM120.489 11V7.32089H117.416V11H114.661V1.49191H117.416V4.97808H120.489V1.49191H123.245V11H120.489ZM128.135 4.97808H127.652V1.49191H124.897V11H127.652V7.32089H128.053L130.602 11H133.784L130.339 6.0255L133.509 1.49191H130.602L128.135 4.97808V4.97808Z" fill="white"/>
</svg>
