<svg width="224" height="44" viewBox="0 0 224 44" fill="none" xmlns="http://www.w3.org/2000/svg">
<path d="M21.7 0C9.7 0 0 9.7 0 21.7C0 33.7 9.7 43.4 21.7 43.4C33.7 43.4 43.4 33.7 43.4 21.7C43.4 9.7 33.7 0 21.7 0ZM18.7 30.9L17.1 35.6C11.1 33.6 7.1 27.9 7.1 21.5C7.1 15.1 11.1 9.5 17.2 7.4L18.8 12.1C14.8 13.4 12.2 17.2 12.2 21.4C12 25.8 14.7 29.6 18.7 30.9V30.9ZM26.1 35.7L24.6 30.9C28.7 29.6 31.4 25.8 31.4 21.5C31.4 17.2 28.7 13.5 24.7 12.2L26.3 7.4C32.4 9.4 36.5 15.1 36.5 21.5C36.5 28.1 32.3 33.8 26.1 35.7V35.7Z" fill="white"/>
<path d="M220.4 25.6L222.8 28.5C220.3 31.1 217.2 31.8 214.7 31.8C212.3 31.8 210.6 31.4 209.1 30.7C205.9 29.1 204.3 25.9 204.3 22C204.3 16.1 208.3 11.7 214.2 11.7C220.8 11.7 224 16.6 223.5 23H208.5C208.6 24.6 209.5 26.1 210.8 26.9C211.9 27.6 213.2 27.9 214.9 27.9C216.8 27.9 218.7 27.3 220.4 25.6V25.6ZM208.6 19.5H219.2C218.9 17.2 217 15.2 214 15.2C210.9 15.2 209 17.4 208.6 19.5ZM107.9 31.2H113.3L104.8 21.3L113.2 12H107.9L101.5 19.4H99.6001V12H95.5001V31.1H99.6001V23.5H101.5L107.9 31.2V31.2ZM125.5 15.5C122 15.5 119.7 18.2 119.7 21.6C119.7 25 122 27.7 125.5 27.7C129 27.7 131.2 25.1 131.2 21.6C131.3 18.3 129.1 15.5 125.5 15.5V15.5ZM126.2 11.6C131.6 11.6 135.6 15.8 135.6 21.6C135.6 27.3 131.7 31.7 126.2 31.7C123.6 31.7 121.5 30.8 120 29.2V39.2H115.8V12.1H119.9V14.4C121.5 12.5 123.6 11.6 126.2 11.6V11.6ZM180.7 12.1H163.6V15.9H170.1V31.2H174.3V15.9H180.8V12.1H180.7V12.1ZM92.6001 12.1H75.4001V15.9H81.9001V31.2H86.1001V15.9H92.6001V12.1V12.1ZM70.4001 21.7C70.4001 18.1 67.9001 15.5 64.4001 15.5C61.0001 15.5 58.4001 18.1 58.4001 21.7C58.4001 25.3 60.9001 27.9 64.4001 27.9C67.8001 27.9 70.4001 25.3 70.4001 21.7ZM54.1001 21.7C54.1001 16 58.5001 11.7 64.4001 11.7C70.2001 11.7 74.7001 16 74.7001 21.7C74.7001 27.4 70.3001 31.8 64.4001 31.8C58.6001 31.7 54.1001 27.4 54.1001 21.7V21.7ZM201 12.1V31.2H196.9V18.9L186.9 31.2H183.6V12.1H187.7V24.4L197.7 12.1H201V12.1ZM160.7 31.2H156.6V12.1H160.7V31.2ZM150.1 24.7C150.1 23 148.9 21.8 147.3 21.8H143.1V27.7H147.3C148.9 27.7 150.1 26.4 150.1 24.7ZM154.2 24.7C154.2 28.5 151.4 31.2 147.4 31.2H139V12.1H143.1V18.3H147.8C151.8 18.3 154.2 20.9 154.2 24.7Z" fill="white"/>
</svg>
