<svg width="107" height="24" viewBox="0 0 107 24" fill="none" xmlns="http://www.w3.org/2000/svg">
<path fill-rule="evenodd" clip-rule="evenodd" d="M75.3481 15.026C76.6551 15.026 77.4321 14.25 77.4321 12.978C77.4321 11.69 76.6051 10.881 75.3151 10.881H72.9651V15.026H75.3481ZM71.3271 4.78796H78.2271V6.20796H72.9651V9.46096H75.5301C77.5811 9.46096 79.0871 10.733 79.0871 12.978C79.0871 15.059 77.6471 16.446 75.6121 16.446H71.3271V4.78796V4.78796ZM83.5221 15.373C84.9281 15.373 85.7721 13.953 85.7721 12.714V12.4H85.3581C84.1671 12.4 81.9501 12.5 81.9501 14.035C81.9501 14.695 82.4801 15.373 83.5221 15.373ZM85.3421 11.245H85.7721V11.079C85.7721 9.70896 84.9781 9.24596 83.9351 9.24596C83.1081 9.24596 82.2641 9.57596 81.5851 10.056L80.9401 8.88296C81.6191 8.32196 82.8931 7.89296 84.0681 7.89296C86.1691 7.89296 87.3771 9.04796 87.3771 11.162V16.446H85.8701V15.604C85.8701 15.224 85.9201 14.944 85.9201 14.944H85.8871C85.6307 15.4532 85.2383 15.8815 84.7535 16.1815C84.2687 16.4816 83.7103 16.6416 83.1401 16.644C81.6841 16.644 80.3441 15.736 80.3441 14.167C80.3441 11.542 83.6041 11.245 85.3411 11.245H85.3421ZM89.7421 8.09096H91.3481V11.492H95.5841V8.09096H97.1891V16.446H95.5841V12.863H91.3481V16.446H89.7431V8.09096H89.7421ZM99.6711 8.09096H101.275V11.459H102.45L104.734 8.09096H106.554L103.757 12.071V12.103L106.884 16.446H104.982L102.483 12.83H101.275V16.446H99.6711V8.09096V8.09096Z" fill="white"/>
<path fill-rule="evenodd" clip-rule="evenodd" d="M16.1782 20.86C18.2102 20.86 20.4152 21.556 22.8552 23.714C23.0992 23.93 23.4252 23.661 23.2112 23.393C20.8132 20.371 18.5952 19.796 16.3842 19.309C13.6782 18.714 12.2862 17.195 11.3162 15.527C11.1242 15.195 11.0372 15.253 11.0202 15.68C11.0002 16.3131 11.044 16.9467 11.1512 17.571C11.0422 17.576 10.9332 17.575 10.8222 17.575C6.95221 17.575 3.81421 14.444 3.81421 10.581C3.81421 6.718 6.95221 3.586 10.8222 3.586C14.6922 3.586 17.8302 6.718 17.8302 10.581C17.8302 10.856 17.8172 11.127 17.7862 11.394C17.2742 11.302 16.2672 11.291 15.5602 11.352C15.2942 11.375 15.3322 11.499 15.5332 11.535C17.8502 11.953 19.4412 13.385 19.8052 15.985C19.8132 16.045 19.8922 16.064 19.9232 16.012C20.9079 14.3718 21.4265 12.4941 21.4232 10.581C21.4242 4.737 16.6782 0 10.8242 0C4.96622 0 0.220215 4.737 0.220215 10.58C0.220215 16.424 4.96721 21.162 10.8222 21.162C12.3762 21.162 13.9172 20.861 16.1782 20.861V20.86ZM16.9682 17.019C17.4382 17.417 17.5832 17.89 17.3332 18.224C17.1942 18.407 16.9692 18.508 16.7002 18.508C16.4352 18.508 16.1662 18.41 15.9782 18.247C15.5502 17.873 15.4242 17.267 15.7042 16.922C15.8142 16.787 15.9912 16.713 16.2042 16.713C16.4632 16.713 16.7342 16.822 16.9672 17.019H16.9682ZM19.1442 16.009C19.2132 16.472 19.0662 16.664 18.9192 16.664C18.7582 16.664 18.5562 16.476 18.3182 16.105C18.0832 15.739 17.9972 15.319 18.1132 15.106C18.1902 14.966 18.3512 14.905 18.5552 14.982C18.9482 15.13 19.1022 15.732 19.1442 16.008V16.009ZM33.8392 13.585L32.6172 12.118C32.5885 12.0835 32.5702 12.0415 32.5645 11.997C32.5588 11.9524 32.5659 11.9072 32.585 11.8666C32.6041 11.8259 32.6344 11.7916 32.6724 11.7676C32.7103 11.7436 32.7543 11.7309 32.7992 11.731H35.3562C35.4782 11.369 35.5472 10.983 35.5472 10.581C35.5472 8.743 34.1772 7.159 32.2952 7.159C30.4142 7.159 29.0432 8.743 29.0432 10.581C29.0432 12.419 30.4132 13.981 32.2952 13.981C32.8353 13.9831 33.3668 13.8468 33.8392 13.585V13.585ZM39.3692 16.065C39.5032 16.211 39.3942 16.447 39.1932 16.447H36.4032C36.3472 16.4471 36.2918 16.4349 36.241 16.4113C36.1901 16.3876 36.1452 16.353 36.1092 16.31L35.6362 15.742C34.6414 16.3872 33.4809 16.73 32.2952 16.729C28.8982 16.729 26.1352 13.971 26.1352 10.581C26.1352 7.191 28.8982 4.434 32.2952 4.434C35.6922 4.434 38.4552 7.191 38.4552 10.581C38.4552 11.803 38.0952 12.942 37.4762 13.901L39.3702 16.064L39.3692 16.065ZM65.1472 4.715H62.8702C62.7899 4.715 62.7128 4.74692 62.656 4.80375C62.5991 4.86057 62.5672 4.93764 62.5672 5.018V16.143C62.5672 16.31 62.7032 16.445 62.8702 16.445H65.1472C65.2274 16.445 65.3043 16.4132 65.3611 16.3566C65.4179 16.3 65.4499 16.2232 65.4502 16.143V5.019C65.4502 4.93864 65.4183 4.86157 65.3615 4.80475C65.3046 4.74792 65.2276 4.716 65.1472 4.716V4.715ZM61.3152 4.715H58.7682C58.7035 4.71486 58.6404 4.73546 58.5882 4.77379C58.536 4.81212 58.4974 4.86617 58.4782 4.928L56.4622 11.502L54.2462 4.92C54.2257 4.85999 54.1869 4.80792 54.1352 4.77115C54.0835 4.73437 54.0216 4.71473 53.9582 4.715H52.1802C52.117 4.71494 52.0553 4.73468 52.0038 4.77144C51.9523 4.8082 51.9137 4.86015 51.8932 4.92L49.6772 11.502L47.6602 4.93C47.641 4.86817 47.6024 4.81412 47.5503 4.77579C47.4981 4.73746 47.435 4.71686 47.3702 4.717H44.8222C44.7744 4.71703 44.7273 4.72837 44.6847 4.7501C44.6421 4.77182 44.6053 4.80332 44.5772 4.842C44.5491 4.88036 44.5306 4.9249 44.5233 4.97188C44.516 5.01887 44.5201 5.06692 44.5352 5.112L48.2772 16.243C48.2977 16.303 48.3365 16.3551 48.3882 16.3919C48.4399 16.4286 48.5018 16.4483 48.5652 16.448H50.5872C50.7172 16.448 50.8332 16.366 50.8742 16.243L53.0682 9.74L55.2632 16.243C55.2837 16.3029 55.3223 16.3548 55.3738 16.3916C55.4253 16.4283 55.487 16.4481 55.5502 16.448H57.5722C57.7022 16.448 57.8182 16.366 57.8602 16.243L61.6022 5.113C61.6173 5.06791 61.6213 5.01987 61.614 4.9729C61.6067 4.92593 61.5882 4.88139 61.5602 4.843C61.5321 4.80405 61.4951 4.77233 61.4524 4.75043C61.4096 4.72852 61.3623 4.71707 61.3142 4.717L61.3152 4.715ZM43.5722 5.018V16.143C43.5719 16.2232 43.5399 16.3 43.4831 16.3566C43.4263 16.4132 43.3494 16.445 43.2692 16.445H40.9902C40.9504 16.4451 40.911 16.4374 40.8742 16.4223C40.8374 16.4072 40.8039 16.385 40.7757 16.357C40.7474 16.3289 40.725 16.2956 40.7097 16.2589C40.6943 16.2222 40.6863 16.1828 40.6862 16.143V5.019C40.6862 4.852 40.8222 4.716 40.9902 4.716H43.2672C43.4342 4.716 43.5702 4.852 43.5702 5.019L43.5722 5.018Z" fill="white"/>
</svg>
