<svg width="202" height="56" viewBox="0 0 202 56" fill="none" xmlns="http://www.w3.org/2000/svg">
<path d="M65.3379 30.3379H75.4319V33.5159H69.1179V36.7779H71.2179C72.6319 36.7779 74.4519 36.9459 75.8239 38.2899C76.4119 38.8779 77.1399 39.9559 77.1399 41.6919C77.1399 43.0919 76.6779 44.3379 75.8239 45.1919C74.6199 46.3959 72.8839 46.6619 70.8959 46.6619H65.3379V30.3379ZM70.6019 43.6239C71.1199 43.6239 72.0439 43.5819 72.6319 43.1059C72.8279 42.9379 73.2619 42.4899 73.2619 41.6639C73.2619 40.8799 72.8699 40.3899 72.5339 40.1519C71.9459 39.7319 70.9939 39.7179 70.6019 39.7179H69.1039V43.6379H70.6019V43.6239Z" fill="white"/>
<path d="M87.3042 35.742H90.8322V46.662H87.3042V45.346C86.3522 46.816 84.9802 47.04 84.0702 47.04C82.5022 47.04 81.1862 46.648 79.9822 45.374C78.8342 44.156 78.3862 42.728 78.3862 41.286C78.3862 39.452 79.0722 37.884 80.0802 36.876C81.0322 35.924 82.3622 35.378 83.8742 35.378C84.7982 35.378 86.2962 35.602 87.3042 36.974V35.742ZM82.8242 39.2C82.4602 39.564 82.0122 40.208 82.0122 41.188C82.0122 42.168 82.4322 42.798 82.7402 43.148C83.2302 43.666 83.9862 44.002 84.8262 44.002C85.5402 44.002 86.1982 43.708 86.6602 43.246C87.1222 42.812 87.5142 42.126 87.5142 41.188C87.5142 40.404 87.2202 39.676 86.7022 39.186C86.1702 38.668 85.3862 38.43 84.7422 38.43C83.9862 38.416 83.2862 38.738 82.8242 39.2Z" fill="white"/>
<path d="M92.96 35.742H96.488V39.536H100.436V35.742H103.964V46.662H100.436V42.378H96.488V46.662H92.96V35.742Z" fill="white"/>
<path d="M106.078 35.742H109.606V40.082L113.176 35.742H117.558L112.882 40.81L117.88 46.662H113.33L109.606 41.818V46.662H106.078V35.742Z" fill="white"/>
<path d="M71.0921 9.33789C72.5061 9.33789 74.0741 9.53389 75.3761 10.6819C76.7761 11.8999 76.9721 13.5239 76.9721 14.6439C76.9721 16.7019 76.1881 17.8499 75.5721 18.4939C74.2701 19.8099 72.5621 19.9359 71.4141 19.9359H69.1181V25.6619H65.3521V9.33789H71.0921ZM69.1041 16.8559H70.4481C70.9661 16.8559 71.8621 16.8279 72.4781 16.2399C72.8141 15.9039 73.0941 15.3299 73.0941 14.6299C73.0941 13.9439 72.8561 13.3839 72.4781 13.0339C71.9181 12.5019 71.1061 12.4179 70.3781 12.4179H69.1041V16.8559Z" fill="white"/>
<path d="M86.17 14.742H89.698V25.662H86.17V24.346C85.218 25.816 83.846 26.04 82.936 26.04C81.368 26.04 80.052 25.648 78.848 24.374C77.7 23.156 77.252 21.728 77.252 20.286C77.252 18.452 77.938 16.884 78.946 15.876C79.898 14.924 81.228 14.378 82.74 14.378C83.664 14.378 85.162 14.602 86.17 15.974V14.742ZM81.69 18.2C81.326 18.564 80.878 19.208 80.878 20.188C80.878 21.168 81.298 21.798 81.606 22.148C82.096 22.666 82.852 23.002 83.692 23.002C84.406 23.002 85.064 22.708 85.526 22.246C85.988 21.812 86.38 21.126 86.38 20.188C86.38 19.404 86.086 18.676 85.568 18.186C85.036 17.668 84.252 17.43 83.608 17.43C82.866 17.416 82.152 17.738 81.69 18.2Z" fill="white"/>
<path d="M95.3542 14.7419V20.9859L100.002 14.7419H103.278V25.6619H99.7502V19.3199L95.1022 25.6619H91.8262V14.7419H95.3542ZM101.99 10.3319C101.696 11.2139 101.108 11.9699 100.422 12.4179C99.4982 13.0339 98.3642 13.1039 97.5522 13.1039C96.7402 13.1039 95.6202 13.0339 94.6822 12.4179C93.9962 11.9839 93.4082 11.2139 93.1142 10.3319L95.5642 9.37988C95.6622 9.86988 95.9002 10.2619 96.1942 10.4999C96.5162 10.7659 96.9222 10.9339 97.5382 10.9339C98.1542 10.9339 98.5602 10.7659 98.8822 10.4999C99.1762 10.2619 99.4142 9.86988 99.5122 9.37988L101.99 10.3319Z" fill="white"/>
<path d="M111.076 31.1079V25.8299H110.936C108.458 25.8299 107.086 24.8079 106.456 24.1919C105.672 23.4359 104.888 22.1339 104.888 20.1459C104.888 17.9899 105.868 16.6179 106.778 15.8899C107.856 15.0359 109.466 14.5739 110.922 14.5739H111.09V9.33789H114.618V14.5739H114.786C116.228 14.5739 117.852 15.0359 118.93 15.8899C119.84 16.6179 120.82 17.9899 120.82 20.1459C120.82 22.1339 120.036 23.4219 119.252 24.1919C118.622 24.8079 117.25 25.8299 114.772 25.8299H114.632V31.1079H111.076ZM111.244 17.4159C110.418 17.3739 109.55 17.6539 109.046 18.1719C108.626 18.5919 108.332 19.2919 108.332 20.1599C108.332 21.0139 108.626 21.7279 109.046 22.1619C109.508 22.6799 110.348 23.0159 111.244 22.9879V17.4159ZM114.436 23.0019C115.346 23.0299 116.172 22.6799 116.634 22.1759C117.054 21.7419 117.348 21.0279 117.348 20.1739C117.348 19.3199 117.054 18.6059 116.634 18.1859C116.116 17.6679 115.262 17.3739 114.436 17.4299V23.0019Z" fill="white"/>
<path d="M128.044 31.1079V25.8299H127.904C125.426 25.8299 124.054 24.8079 123.424 24.1919C122.64 23.4359 121.856 22.1339 121.856 20.1459C121.856 17.9899 122.836 16.6179 123.746 15.8899C124.824 15.0359 126.434 14.5739 127.89 14.5739H128.058V9.33789H131.586V14.5739H131.754C133.196 14.5739 134.82 15.0359 135.898 15.8899C136.808 16.6179 137.788 17.9899 137.788 20.1459C137.788 22.1339 137.004 23.4219 136.22 24.1919C135.59 24.8079 134.218 25.8299 131.74 25.8299H131.6V31.1079H128.044ZM128.212 17.4159C127.386 17.3739 126.518 17.6539 126.014 18.1719C125.594 18.5919 125.3 19.2919 125.3 20.1599C125.3 21.0139 125.594 21.7279 126.014 22.1619C126.476 22.6799 127.316 23.0159 128.212 22.9879V17.4159ZM131.404 23.0019C132.314 23.0299 133.14 22.6799 133.602 22.1759C134.022 21.7419 134.316 21.0279 134.316 20.1739C134.316 19.3199 134.022 18.6059 133.602 18.1859C133.084 17.6679 132.23 17.3739 131.404 17.4299V23.0019Z" fill="white"/>
<path d="M147.728 14.742H151.256V25.662H147.728V24.346C146.776 25.816 145.404 26.04 144.494 26.04C142.926 26.04 141.61 25.648 140.406 24.374C139.258 23.156 138.81 21.728 138.81 20.286C138.81 18.452 139.496 16.884 140.504 15.876C141.456 14.924 142.786 14.378 144.298 14.378C145.222 14.378 146.72 14.602 147.728 15.974V14.742ZM143.248 18.2C142.884 18.564 142.436 19.208 142.436 20.188C142.436 21.168 142.856 21.798 143.164 22.148C143.654 22.666 144.41 23.002 145.25 23.002C145.964 23.002 146.622 22.708 147.084 22.246C147.546 21.812 147.938 21.126 147.938 20.188C147.938 19.404 147.644 18.676 147.126 18.186C146.594 17.668 145.81 17.43 145.166 17.43C144.424 17.416 143.71 17.738 143.248 18.2Z" fill="white"/>
<path d="M156.912 14.7419V20.9859L161.56 14.7419H164.836V25.6619H161.308V19.3199L156.66 25.6619H153.384V14.7419H156.912ZM163.548 10.3319C163.254 11.2139 162.666 11.9699 161.98 12.4179C161.056 13.0339 159.922 13.1039 159.11 13.1039C158.298 13.1039 157.178 13.0339 156.24 12.4179C155.554 11.9839 154.966 11.2139 154.672 10.3319L157.122 9.37988C157.22 9.86988 157.458 10.2619 157.752 10.4999C158.074 10.7659 158.48 10.9339 159.096 10.9339C159.712 10.9339 160.118 10.7659 160.44 10.4999C160.734 10.2619 160.972 9.86988 161.07 9.37988L163.548 10.3319Z" fill="white"/>
<path d="M166.614 15.68C167.076 15.386 167.832 14.994 168.42 14.77C169.246 14.476 170.156 14.378 170.996 14.378C171.584 14.378 173.586 14.42 174.692 15.498C175.308 16.086 175.504 16.772 175.504 17.5C175.504 18.186 175.378 18.802 174.846 19.362C174.58 19.628 174.258 19.852 173.922 19.978C174.734 20.174 175.238 20.608 175.392 20.762C175.924 21.28 176.12 21.868 176.12 22.568C176.12 23.324 175.882 24.136 175.168 24.85C174.244 25.76 172.97 26.026 171.15 26.026C170.17 26.026 169.148 25.9 168.168 25.536C167.216 25.172 166.502 24.626 166.208 24.388L167.706 22.064C168.098 22.4 168.616 22.75 169.05 22.946C169.512 23.142 170.17 23.282 170.744 23.282C171.136 23.282 171.668 23.212 172.018 23.016C172.438 22.778 172.508 22.428 172.508 22.19C172.508 21.826 172.312 21.602 171.99 21.462C171.696 21.336 171.108 21.266 170.716 21.266H169.4V18.872H170.408C170.73 18.872 171.388 18.83 171.724 18.676C172.144 18.48 172.242 18.158 172.242 17.948C172.242 17.752 172.144 17.43 171.71 17.234C171.542 17.164 171.192 17.038 170.604 17.038C170.044 17.038 169.624 17.136 169.162 17.332C168.7 17.528 168.336 17.752 167.986 18.046L166.614 15.68Z" fill="white"/>
<path d="M188.888 20.818H180.74C180.74 21.406 180.964 22.19 181.398 22.68C181.93 23.268 182.672 23.366 183.204 23.366C183.722 23.366 184.254 23.268 184.618 23.044C184.66 23.016 185.08 22.75 185.374 22.134L188.706 22.47C188.216 24.01 187.236 24.822 186.606 25.214C185.556 25.844 184.38 26.026 183.148 26.026C181.51 26.026 180.068 25.732 178.794 24.458C177.842 23.506 177.156 22.064 177.156 20.244C177.156 18.676 177.716 17.066 178.822 15.932C180.138 14.616 181.79 14.364 183.008 14.364C184.226 14.364 185.99 14.588 187.348 16.002C188.65 17.374 188.888 19.082 188.888 20.44V20.818ZM185.64 18.718C185.612 18.62 185.444 17.934 184.926 17.444C184.534 17.08 183.974 16.828 183.26 16.828C182.35 16.828 181.818 17.192 181.468 17.542C181.202 17.836 180.95 18.228 180.852 18.718H185.64Z" fill="white"/>
<path d="M190.484 14.742H194.012V18.536H197.96V14.742H201.488V25.662H197.96V21.378H194.012V25.662H190.484V14.742Z" fill="white"/>
<path fill-rule="evenodd" clip-rule="evenodd" d="M45.416 56C52.22 56 56 52.22 56 45.416V10.584C56 3.78 52.22 0 45.43 0H10.584C3.78 0 0 3.78 0 10.584V45.416C0 52.22 3.78 56 10.584 56H45.416ZM36.0077 19.9218V25.2698L33.2917 27.9998L46.6757 41.3978L41.3837 46.6758L27.9997 33.2918L14.6157 46.6618L9.32366 41.3838L22.7077 27.9998L19.9917 25.2978V19.9498L18.0597 18.0178V22.6518L16.3797 24.3318L9.61766 17.5698L7.95166 19.2358C7.96566 17.9758 8.21766 14.3218 11.3117 11.2838C14.6437 8.06383 18.2557 9.51983 19.4877 10.7518L26.2357 17.4998L24.5137 19.2218L27.9997 22.7078L31.4857 19.1938L29.7637 17.4718L36.5117 10.7238C37.7437 9.49183 41.3557 8.03583 44.6877 11.2558C47.7817 14.2938 48.0337 17.9478 48.0477 19.2078L46.3817 17.5418L39.6197 24.3038L37.9397 22.6238V17.9898L36.0077 19.9218Z" fill="white"/>
</svg>
