<svg width="136" height="16" viewBox="0 0 136 16" fill="none" xmlns="http://www.w3.org/2000/svg">
<path d="M0.600304 3.38883L14.5551 8.14104L0.499023 12.8535L1.40856 15.3815L19.1663 9.41597V6.58411L1.61112 0.61853L0.600304 3.38883Z" fill="white"/>
<path d="M28.9965 0.922363H21.897V15.0797H25.132V10.6293H28.9945C32.6346 10.6293 34.8389 8.74871 34.8389 5.77585C34.8409 2.80299 32.6366 0.922363 28.9965 0.922363ZM28.9965 7.59491H25.134V3.9548H28.9965C30.6348 3.9548 31.5245 4.66177 31.5245 5.77585C31.5245 6.88794 30.6329 7.59491 28.9965 7.59491Z" fill="white"/>
<path d="M41.7974 4.46118C38.056 4.46118 35.5479 6.84821 35.5479 9.92235C35.5479 12.9965 38.056 15.3835 41.7974 15.3835C45.5388 15.3835 48.047 12.9965 48.047 9.92235C48.047 6.84821 45.5388 4.46118 41.7974 4.46118ZM41.7974 12.7939C39.8751 12.7939 38.622 11.5408 38.622 9.92235C38.622 8.30386 39.8751 7.05077 41.7974 7.05077C43.7197 7.05077 44.9728 8.30386 44.9728 9.92235C44.9728 11.5389 43.7197 12.7939 41.7974 12.7939Z" fill="white"/>
<path d="M60.1825 4.76508H56.743L52.5984 9.21344V4.76508H49.564V15.0797H52.5984V10.6095L56.9455 15.0797H60.8299L55.5911 9.67814L60.1825 4.76508Z" fill="white"/>
<path d="M66.472 4.46118C62.8319 4.46118 60.3237 6.84821 60.3237 9.92235C60.3237 12.9965 62.8319 15.3835 66.472 15.3835C68.9603 15.3835 70.9224 14.2516 71.9332 12.5715L68.8193 11.8427C68.2732 12.4285 67.4431 12.7939 66.474 12.7939C64.9568 12.7939 63.8447 11.9241 63.5011 10.7107H72.6223V9.92235C72.6203 6.84821 70.1121 4.46118 66.472 4.46118ZM63.6004 8.68713C64.0254 7.61476 65.0759 6.88793 66.472 6.88793C67.8681 6.88793 68.9186 7.61674 69.3436 8.68713H63.6004Z" fill="white"/>
<path d="M73.3291 7.39239H76.8679V15.0797H79.9004V7.39239H83.4412V4.76508H73.3291V7.39239Z" fill="white"/>
<path d="M91.8137 5.0669C90.1356 5.0669 88.4159 5.79571 87.7486 6.76482C88.1537 4.64192 90.0344 3.81182 93.2098 3.60926L96.4448 3.4067V0.61853L93.4103 0.801231C87.6255 1.14479 84.7539 3.81381 84.7539 8.40516C84.7539 13.1991 87.2621 15.3835 91.0035 15.3835C94.7449 15.3835 97.253 13.1991 97.253 10.2262C97.253 7.25335 94.7468 5.0669 91.8137 5.0669ZM91.0055 12.7939C89.0831 12.7939 87.83 11.7414 87.83 10.2262C87.83 8.71098 89.0831 7.65847 91.0055 7.65847C92.9278 7.65847 94.1809 8.71098 94.1809 10.2262C94.1809 11.7414 92.9258 12.7939 91.0055 12.7939Z" fill="white"/>
<path d="M103.826 4.46118C101.481 4.46118 99.1139 5.49185 98.669 7.51546L101.662 8.20258C101.783 7.4956 102.571 6.98921 103.826 6.98921C105.445 6.98921 106.194 7.65646 106.194 8.78841H103.463C99.7017 8.78841 98.3672 10.4268 98.3672 12.2478C98.3672 14.2694 100.087 15.3835 102.412 15.3835C103.848 15.3835 105.284 14.899 106.194 13.9676V15.0797H109.228V8.60769C109.228 5.97839 106.942 4.46118 103.826 4.46118ZM106.194 10.812C106.194 12.4504 104.617 12.9568 103.119 12.9568C102.109 12.9568 101.441 12.5934 101.441 12.0055C101.441 11.4177 101.968 10.7922 103.969 10.7922H106.194V10.812Z" fill="white"/>
<path d="M119.239 8.50647H114.183V4.76508H111.148V15.0797H114.183V11.1357H119.239V15.0797H122.271V4.76508H119.239V8.50647Z" fill="white"/>
<path d="M130.322 9.67814L134.913 4.76508H131.474L127.329 9.21344V4.76508H124.295V15.0797H127.329V10.6095L131.676 15.0797H135.561L130.322 9.67814Z" fill="white"/>
</svg>
