<svg width="121" height="16" viewBox="0 0 121 16" fill="none" xmlns="http://www.w3.org/2000/svg">
<path d="M9.54916 0.886122C12.6966 0.886122 14.6721 2.92382 14.6721 5.74232C14.6721 8.67502 12.6934 10.3667 9.54916 10.3667H3.28966V15.1626H0.622559V0.879822L9.54916 0.886122ZM9.70286 8.00532C10.0012 8.02032 10.2994 7.97322 10.5782 7.86682C10.857 7.76052 11.1102 7.59742 11.3214 7.38802C11.5326 7.17862 11.6972 6.92762 11.8044 6.65122C11.9117 6.37492 11.9593 6.07932 11.9441 5.78352C11.9441 4.37752 11.0796 3.24442 9.54276 3.24442H3.28966V8.00532H9.70286Z" fill="white"/>
<path d="M24.5625 15.5784C19.9743 15.5784 16.1738 12.5536 16.1738 8.02122C16.1738 3.54913 19.9743 0.467224 24.5625 0.467224C29.1507 0.467224 32.9128 3.54913 32.9128 8.02122C32.9128 12.5536 29.1699 15.5784 24.5625 15.5784ZM24.5625 2.90483C21.2198 2.90483 18.937 5.14882 18.937 8.02122C18.937 10.973 21.1238 13.1598 24.5625 13.1598C28.0013 13.1598 30.1465 10.9381 30.1465 8.02122C30.1465 5.16462 27.9788 2.90483 24.5625 2.90483Z" fill="white"/>
<path d="M43.9721 15.5435C39.1534 15.5435 35.5225 12.5155 35.5225 7.9863C35.5225 3.5427 39.2078 0.448096 43.9721 0.448096C46.3851 0.386396 48.7477 1.1383 50.6735 2.581L49.2487 4.6758C47.7701 3.519 45.9356 2.9005 44.0521 2.9238C40.5302 2.9238 38.3465 5.1456 38.3465 8.0021C38.3465 10.9539 40.5558 13.0805 44.0874 13.0805C45.99 13.1131 47.8485 12.5106 49.3639 11.3697L50.7855 13.4613C48.9637 14.7944 46.8153 15.5562 43.9721 15.5562" fill="white"/>
<path d="M73.8478 11.6966L72.1828 15.1626H69.3008L76.3068 0.879822H79.1078L86.1358 15.1626H83.2548L81.6058 11.6966H73.8478ZM74.9588 9.37652H80.5078L77.7378 3.58712L74.9588 9.37652Z" fill="white"/>
<path d="M100.279 15.1626V9.05271H90.856V15.1626H88.186V0.886108H90.856V6.71351H100.279V0.886108H102.952V15.1626H100.279Z" fill="white"/>
<path d="M106.903 15.1626V0.886108H109.574V7.54831L116.81 0.886108H120.092L112.644 7.76091L120.399 15.1626H116.81L109.574 8.23381V15.1626H106.903Z" fill="white"/>
<path d="M62.7217 6.11982H56.4686V3.11092H66.7721V0.889221H53.7983V15.1529H62.7217C65.8661 15.1529 68.0301 13.458 68.0301 10.6459C68.0301 7.71642 65.8661 6.13572 62.7217 6.13572V6.11982ZM62.8754 12.801H56.4718V8.48132H62.8754C64.5501 8.48132 65.5011 9.35412 65.5011 10.6301C65.5011 12.0361 64.7451 12.7788 62.8754 12.7788" fill="white"/>
</svg>
