<svg width="110" height="45" viewBox="0 0 110 45" fill="none" xmlns="http://www.w3.org/2000/svg">
<path fill-rule="evenodd" clip-rule="evenodd" d="M29.9 7.2998C26.1 9.6998 23.6 13.6998 23.6 18.2998C23.6 22.9998 26.2 27.0998 30.1 29.3998C27 32.9998 22.5 35.1998 17.4 35.1998C8.1 35.1998 0.5 27.6998 0.5 18.4998C0.5 9.29981 8.1 1.7998 17.4 1.7998C22.4 1.7998 26.9 3.8998 29.9 7.2998ZM106.5 34.3998L102.8 38.0998L106.9 44.2998H104.9L101.6 39.2998L100.4 40.3998V44.2998H98.8V30.6998H100.4V38.3998L104.4 34.3998H106.5ZM94.5 34.5998C95 34.7998 95.4 35.0998 95.6 35.3998C95.8 35.6998 96 36.0998 96.2 36.5998C96.3 36.8998 96.3 37.3998 96.3 38.1998V44.1998H94.6V38.1998C94.6 37.4998 94.5 36.9998 94.4 36.6998C94.3 36.3998 94 36.0998 93.7 35.8998C93.3 35.6998 92.9 35.5998 92.5 35.5998C91.8 35.5998 91.2 35.7998 90.7 36.2998C90.1 36.7998 89.9 37.6998 89.9 38.8998V44.2998H88.3V34.4998H89.8V35.8998C90.5 34.8998 91.6 34.2998 92.9 34.2998C93.5 34.2998 94 34.3998 94.5 34.5998ZM85.8 37.9998V40.1998V43.0998C85.9 43.4998 86 43.8998 86.2 44.2998H84.5C84.3 43.9998 84.1 43.5998 84.1 43.0998C83.5 43.5998 82.9 43.9998 82.3 44.1998C81.8 44.3998 81.2 44.4998 80.5 44.4998C79.4 44.4998 78.6 44.1998 78 43.6998C77.4 43.1998 77.1 42.4998 77.1 41.6998C77.1 41.1998 77.2 40.7998 77.4 40.3998C77.6 39.9998 77.9 39.5998 78.3 39.3998C78.6 39.0998 79 38.8998 79.5 38.7998C79.7058 38.7998 80.0058 38.7527 80.4 38.6909C80.5803 38.6626 80.7803 38.6312 81 38.5998C82.4 38.3998 83.3 38.1998 84 37.9998V37.5998C84 36.8998 83.8 36.4998 83.5 36.1998C83.1 35.7998 82.4 35.5998 81.6 35.5998C80.9 35.5998 80.3 35.6998 79.9 35.9998C79.6 36.2998 79.3 36.7998 79.1 37.4998L77.5 37.2998C77.6 36.5998 77.9 35.9998 78.2 35.5998C78.6 35.1998 79.1 34.7998 79.7 34.5998C80.3 34.3998 81.1 34.2998 81.9 34.2998C82.8 34.2998 83.5 34.3998 84 34.5998C84.6 34.6998 85 34.9998 85.2 35.2998C85.2408 35.3815 85.2817 35.459 85.3217 35.5349C85.4775 35.8307 85.6204 36.1019 85.7 36.4998C85.8 36.7998 85.8 37.2998 85.8 37.9998ZM83.6 41.4998C83.8 41.1998 83.9 40.5998 83.9 39.8998V39.3998C83.3 39.5998 82.4 39.7998 81.2 39.9998C80.5 40.0998 80 40.1998 79.7 40.2998C79.4 40.3998 79.2 40.5998 79 40.7998C78.9791 40.8624 78.9583 40.9207 78.9383 40.9764C78.8626 41.1876 78.8 41.3624 78.8 41.5998C78.8 41.9998 79 42.3998 79.3 42.6998C79.7 42.8998 80.2 43.0998 80.8 43.0998C81.4 43.0998 82 42.9998 82.5 42.6998C83 42.3998 83.4 41.9998 83.6 41.4998ZM73.3 34.6998C73.8 34.8998 74.3 35.2998 74.6 35.6998C74.9 36.0998 75.2 36.5998 75.4 37.1998C75.6 37.7998 75.7 38.4998 75.7 39.1998C75.7 40.8998 75.3 42.1998 74.5 43.0998C73.6 44.0998 72.7 44.4998 71.5 44.4998C70.4 44.4998 69.5 44.0998 68.8 43.0998V44.2998H67.2V30.6998H68.9V35.5998C69.6 34.6998 70.5 34.2998 71.6 34.2998C72.2 34.2998 72.8 34.4998 73.3 34.6998ZM71.2 43.0998C71.9 43.0998 72.6 42.7998 73.1 42.1998C73.7 41.4998 73.9 40.5998 73.8 39.2998C73.8 38.0998 73.6 37.0998 73.1 36.4998C72.6 35.8998 72 35.5998 71.3 35.5998C70.6 35.5998 69.9 35.8998 69.4 36.4998C68.9 37.0998 68.6 37.9998 68.6 39.1998C68.6 40.3998 68.8 41.2998 69.1 41.7998C69.6 42.6998 70.3 43.0998 71.2 43.0998ZM11.9 29.1C12.6 29.1 13.3 28.5 13.3 27.7L13.5 16.1C13.5 14.4 14.1 13.1 15 12.2C15.9 11.3 17.4 10.8 19.2 10.8C20 10.8 20.6 10.2 20.6 9.4C20.6 8.6 20 8 19.2 8C16.6 8 14.5 8.7 13 10.1C11.5 11.5 10.6 13.5 10.6 16L10.5 27.7C10.5 28.4 11.1 29.1 11.9 29.1Z" fill="white"/>
<path d="M36.6001 7.5C33.7001 7.5 31.1001 8.7 29.2001 10.6C27.3001 12.5 26.1001 15.1 26.1001 18C26.1001 20.9 27.3001 23.5 29.2001 25.4C31.1001 27.3 33.7001 28.5 36.6001 28.5C39.5001 28.5 42.1001 27.3 44.0001 25.4C45.9001 23.5 47.1001 20.9 47.1001 18C47.1001 15.1 45.9001 12.5 44.0001 10.6C42.1001 8.7 39.5001 7.5 36.6001 7.5ZM42.2001 23.6C40.7001 25 38.8001 25.9 36.6001 25.9C34.4001 25.9 32.4001 25 31.0001 23.6C29.6001 22.2 28.7001 20.2 28.7001 18C28.7001 15.8 29.6001 13.8 31.0001 12.4C32.5001 11 34.5001 10.1 36.6001 10.1C38.8001 10.1 40.8001 11 42.2001 12.4C43.6001 13.9 44.5001 15.8 44.5001 18C44.5001 20.2 43.6001 22.2 42.2001 23.6ZM64.8001 7.6C64.1001 7.6 63.5001 8.2 63.5001 8.9V21C63.4001 23.1 62.2001 24.5 60.6001 25.2C59.8001 25.5 58.9001 25.7 58.0001 25.7C57.1001 25.7 56.1001 25.5 55.3001 25.2C53.5001 24.5 52.1001 23.1 51.9001 20.9L52.0001 8.9C52.0001 8.2 51.4001 7.6 50.7001 7.6C50.0001 7.6 49.4001 8.2 49.4001 8.9L49.3001 21.1V21.2C49.5001 24.5 51.7001 26.7 54.4001 27.7C55.6001 28.2 56.8001 28.4 58.1001 28.4C59.4001 28.4 60.6001 28.1 61.7001 27.7C64.2001 26.6 66.1001 24.5 66.2001 21.2V8.8C66.1001 8.1 65.5001 7.6 64.8001 7.6ZM80.5001 8.5C79.3001 8.1 78.1001 7.8 76.8001 7.8C75.5001 7.8 74.3001 8.1 73.2001 8.5C70.7001 9.6 68.8001 11.7 68.7001 15V27.3C68.7001 28 69.3001 28.6 70.0001 28.6C70.7001 28.6 71.3001 28 71.3001 27.3V15.2C71.4001 13.1 72.6001 11.7 74.2001 11C75.0001 10.7 75.9001 10.5 76.8001 10.5C77.7001 10.5 78.7001 10.7 79.5001 11C81.3001 11.7 82.7001 13.1 82.9001 15.3L82.8001 27.3C82.8001 28 83.4001 28.6 84.1001 28.6C84.8001 28.6 85.4001 28 85.4001 27.3L85.5001 15.1V15C85.3001 11.7 83.1001 9.6 80.5001 8.5ZM107.9 0.5C107.2 0.5 106.7 1.1 106.7 1.7V11.7C104.8 9.2 101.8 7.7 98.5001 7.7C92.7001 7.7 88.1001 12.4 88.1001 18.1C88.1001 23.8 92.6001 28.5 98.4001 28.5C101.8 28.5 104.7 26.9 106.6 24.5V27.3C106.6 28 107.2 28.5 107.8 28.5C108.5 28.5 109 27.9 109 27.3V1.7C109.1 1.1 108.5 0.5 107.9 0.5ZM98.4001 26C94.0001 26 90.5001 22.4 90.5001 18.1C90.5001 13.7 94.1001 10.2 98.4001 10.2C102.8 10.2 106.3 13.8 106.3 18.1C106.3 22.5 102.7 26 98.4001 26Z" fill="white"/>
</svg>
