<svg width="161" height="32" viewBox="0 0 161 32" fill="none" xmlns="http://www.w3.org/2000/svg">
<path d="M97.1203 29.1C97.0793 29.2459 96.9893 29.3733 96.8653 29.4607C96.7413 29.5481 96.5913 29.5902 96.4403 29.58H92.5203V25.5H96.3203V24.3H92.5203V20.78H96.3603C96.5123 20.7636 96.6653 20.8034 96.7913 20.8917C96.9163 20.9801 97.0043 21.111 97.0403 21.26H97.4403V19.62H90.6803V20.02C90.7943 20.0522 90.8933 20.1229 90.9603 20.22C91.1203 20.38 91.1203 20.62 91.1603 20.7V29.7C91.1573 29.8379 91.1133 29.9718 91.0353 30.0855C90.9573 30.1992 90.8483 30.2876 90.7203 30.34V30.74H97.5203V29.1H97.1203ZM114.6 29.1C114.559 29.2459 114.469 29.3733 114.345 29.4607C114.221 29.5481 114.071 29.5902 113.92 29.58H110V25.5H113.8V24.3H110V20.78H113.84C113.991 20.7698 114.141 20.8119 114.265 20.8993C114.389 20.9867 114.479 21.1141 114.52 21.26H114.92V19.62H108.2V20.02C108.314 20.0522 108.413 20.1229 108.48 20.22C108.64 20.38 108.64 20.62 108.68 20.7V29.7C108.677 29.8379 108.633 29.9718 108.555 30.0855C108.477 30.1992 108.368 30.2876 108.24 30.34V30.74H115V29.1H114.56H114.6ZM88.7203 19.98V19.58H79.9203V19.98C80.0663 20.021 80.1933 20.111 80.2813 20.2348C80.3683 20.3586 80.4103 20.5088 80.4003 20.66V29.66C80.4103 29.8112 80.3683 29.9614 80.2813 30.0852C80.1933 30.209 80.0663 30.299 79.9203 30.34V30.74H82.2003V30.34C82.0543 30.299 81.9273 30.209 81.8393 30.0852C81.7523 29.9614 81.7103 29.8112 81.7203 29.66V20.78H86.8403V29.7C86.8503 29.8512 86.8083 30.0014 86.7213 30.1252C86.6333 30.249 86.5063 30.339 86.3603 30.38V30.78H88.6403V30.38C88.4943 30.339 88.3673 30.249 88.2793 30.1252C88.1923 30.0014 88.1503 29.8512 88.1603 29.7V20.7C88.1833 20.5417 88.2463 20.392 88.3443 20.2657C88.4433 20.1395 88.5723 20.041 88.7203 19.98ZM77.6003 25.5H72.8803V24.3H77.6003V25.5ZM32.4003 29.1C32.3669 29.2456 32.2857 29.3759 32.1698 29.4701C32.0538 29.5643 31.9097 29.6171 31.7603 29.62C31.7603 29.62 31.0403 29.7 30.1603 29.7C29.7842 29.7285 29.4068 29.6672 29.059 29.5211C28.7113 29.3751 28.4033 29.1485 28.1603 28.86C27.67 28.1008 27.4449 27.2006 27.5203 26.3V24.18C27.5203 21.9 28.3603 20.78 30.0803 20.78C30.8403 20.78 31.6403 20.86 31.6403 20.86C31.787 20.8721 31.9266 20.9282 32.0408 21.021C32.155 21.1138 32.2385 21.2389 32.2803 21.38H32.7603V19.86C32.3909 19.7731 32.017 19.7064 31.6403 19.66C31.1512 19.5733 30.6567 19.5199 30.1603 19.5C29.6192 19.4753 29.079 19.5659 28.5755 19.7659C28.0721 19.9659 27.6169 20.2707 27.2403 20.66C26.4839 21.6543 26.1272 22.8958 26.2403 24.14V26.22C26.1459 27.4627 26.5325 28.6942 27.3203 29.66C27.6917 30.0563 28.1459 30.3658 28.6507 30.5663C29.1554 30.7668 29.6982 30.8535 30.2403 30.82C30.9603 30.82 31.4403 30.82 31.8803 30.74L32.8803 30.58V29.06L32.4003 29.1ZM143.6 19.66H141.08V20.06C141.4 20.18 141.56 20.42 141.4 20.9C141.24 21.38 139.4 26.14 139.4 26.14C139.222 26.1078 139.064 26.0073 138.96 25.86C138.8 25.54 136.96 21.02 136.88 20.74C136.844 20.676 136.823 20.6041 136.82 20.5305C136.818 20.4569 136.833 20.3837 136.864 20.3171C136.895 20.2505 136.942 20.1923 137.001 20.1476C137.059 20.1029 137.127 20.0728 137.2 20.06V19.66H134.64V20.06C134.815 20.0827 134.979 20.1551 135.114 20.2686C135.249 20.382 135.348 20.5318 135.4 20.7C135.52 20.98 137.52 25.94 137.68 26.34C137.785 26.5947 137.919 26.8364 138.08 27.06C138.301 27.2706 138.579 27.4099 138.88 27.46C138.88 27.46 138.6 28.22 138.36 28.82C138.277 29.0849 138.113 29.3168 137.89 29.4821C137.667 29.6474 137.397 29.7378 137.12 29.74C136.98 29.7409 136.844 29.6937 136.735 29.6063C136.626 29.519 136.55 29.3967 136.52 29.26H136.08V30.7C136.428 30.8685 136.815 30.9377 137.2 30.9C137.729 30.9258 138.251 30.7706 138.68 30.46C139.12 30.1118 139.464 29.6576 139.68 29.14C139.96 28.5 142.68 21.06 142.88 20.7C143.08 20.34 143.2 20.1 143.6 20.02V19.62V19.66ZM43.8403 13.66C43.8403 13.58 41.2803 4.66 41.2803 4.66C41.1759 4.3446 40.9748 4.0702 40.7055 3.8756C40.4363 3.6811 40.1125 3.5764 39.7803 3.5764C39.4481 3.5764 39.1244 3.6811 38.8551 3.8756C38.5858 4.0702 38.3847 4.3446 38.2803 4.66C38.2803 4.66 35.9203 13.02 35.7203 13.66C35.6791 13.8459 35.5857 14.0162 35.4511 14.1508C35.3165 14.2854 35.1462 14.3788 34.9603 14.42V14.82H37.5603V14.42C37.4183 14.368 37.2998 14.2666 37.2263 14.1344C37.1529 14.0022 37.1295 13.848 37.1603 13.7C37.4003 12.7 37.8403 11.18 37.8403 11.18H41.7603C41.7603 11.18 42.4003 13.46 42.4403 13.7C42.4781 13.8484 42.4577 14.0056 42.3834 14.1395C42.309 14.2733 42.1863 14.3737 42.0403 14.42V14.82H44.6403V14.42C44.4596 14.368 44.2951 14.2711 44.1622 14.1381C44.0293 14.0052 43.9323 13.8407 43.8803 13.66H43.8403ZM38.1203 9.94C38.1203 9.94 39.4803 5.06 39.5203 4.94C39.5203 4.8763 39.5456 4.8153 39.5906 4.7703C39.6356 4.7253 39.6967 4.7 39.7603 4.7C39.824 4.7 39.885 4.7253 39.93 4.7703C39.975 4.8153 40.0003 4.8763 40.0003 4.94C40.0003 5.06 41.4003 9.94 41.4003 9.94H38.1203ZM42.7603 29.7C42.7603 29.62 40.2003 20.7 40.2003 20.7C40.0959 20.3846 39.8948 20.1102 39.6255 19.9156C39.3563 19.7211 39.0325 19.6164 38.7003 19.6164C38.3681 19.6164 38.0444 19.7211 37.7751 19.9156C37.5058 20.1102 37.3047 20.3846 37.2003 20.7C37.2003 20.7 34.8403 29.06 34.6403 29.7C34.5991 29.8859 34.5057 30.0562 34.3711 30.1908C34.2365 30.3254 34.0662 30.4188 33.8803 30.46V30.86H36.4803V30.46C36.3383 30.408 36.2198 30.3066 36.1464 30.1744C36.0729 30.0422 36.0495 29.888 36.0803 29.74C36.3203 28.74 36.7603 27.22 36.7603 27.22H40.6003C40.6003 27.22 41.2403 29.5 41.2803 29.74C41.3181 29.8884 41.2977 30.0456 41.2234 30.1795C41.149 30.3133 41.0263 30.4137 40.8803 30.46V30.86H43.4803V30.46C43.3048 30.4065 43.1461 30.3083 43.0199 30.1751C42.8937 30.0419 42.8043 29.8782 42.7603 29.7ZM37.0003 25.9C37.0003 25.9 38.3603 21.02 38.4003 20.9C38.4003 20.8363 38.4256 20.7753 38.4706 20.7303C38.5156 20.6853 38.5767 20.66 38.6403 20.66C38.704 20.66 38.765 20.6853 38.81 20.7303C38.855 20.7753 38.8803 20.8363 38.8803 20.9C38.8803 21.02 40.2803 25.9 40.2803 25.9H37.0003ZM54.1603 4.62C54.1501 4.4688 54.1922 4.3186 54.2796 4.1948C54.367 4.071 54.4944 3.981 54.6403 3.94V3.5H52.3603V3.9C52.5062 3.941 52.6336 4.031 52.721 4.1548C52.8084 4.2786 52.8505 4.4288 52.8403 4.58V8.18H47.7203V4.58C47.7101 4.4288 47.7522 4.2786 47.8396 4.1548C47.927 4.031 48.0544 3.941 48.2003 3.9V3.5H45.9203V3.9C46.0662 3.941 46.1936 4.031 46.281 4.1548C46.3684 4.2786 46.4105 4.4288 46.4003 4.58V13.58C46.4105 13.7312 46.3684 13.8814 46.281 14.0052C46.1936 14.129 46.0662 14.219 45.9203 14.26V14.66H48.2003V14.26C48.0544 14.219 47.927 14.129 47.8396 14.0052C47.7522 13.8814 47.7101 13.7312 47.7203 13.58V9.42H52.8003V13.66C52.8105 13.8112 52.7684 13.9614 52.681 14.0852C52.5936 14.209 52.4662 14.299 52.3203 14.34V14.74H54.6003V14.34C54.4544 14.299 54.327 14.209 54.2396 14.0852C54.1522 13.9614 54.1101 13.8112 54.1203 13.66V4.66L54.1603 4.62ZM53.0003 20.66C52.9901 20.5088 53.0322 20.3586 53.1196 20.2348C53.207 20.111 53.3344 20.021 53.4803 19.98V19.58H51.2003V19.98C51.3462 20.021 51.4736 20.111 51.561 20.2348C51.6484 20.3586 51.6905 20.5088 51.6803 20.66V24.26H46.5603V20.66C46.5501 20.5088 46.5922 20.3586 46.6796 20.2348C46.767 20.111 46.8944 20.021 47.0403 19.98V19.58H44.7603V19.98C44.9062 20.021 45.0336 20.111 45.121 20.2348C45.2084 20.3586 45.2505 20.5088 45.2403 20.66V29.66C45.2505 29.8112 45.2084 29.9614 45.121 30.0852C45.0336 30.209 44.9062 30.299 44.7603 30.34V30.74H47.0003V30.34C46.8544 30.299 46.727 30.209 46.6396 30.0852C46.5522 29.9614 46.5101 29.8112 46.5203 29.66V25.5H51.6403V29.7C51.6505 29.8512 51.6084 30.0014 51.521 30.1252C51.4336 30.249 51.3062 30.339 51.1603 30.38V30.78H53.4403V30.38C53.3018 30.3317 53.1834 30.2386 53.1037 30.1154C53.0241 29.9923 52.9877 29.8461 53.0003 29.7V20.66ZM64.4403 13.66L60.4403 8.22L63.6403 4.62C63.8864 4.286 64.2392 4.0461 64.6403 3.94V3.54H63.0003L58.5203 8.74V4.66C58.5101 4.5088 58.5522 4.3586 58.6396 4.2348C58.727 4.111 58.8544 4.021 59.0003 3.98V3.58H56.6803V3.98C56.8262 4.021 56.9536 4.111 57.041 4.2348C57.1284 4.3586 57.1705 4.5088 57.1603 4.66V13.66C57.1705 13.8112 57.1284 13.9614 57.041 14.0852C56.9536 14.209 56.8262 14.299 56.6803 14.34V14.74H59.0003V14.34C58.8544 14.299 58.727 14.209 58.6396 14.0852C58.5522 13.9614 58.5101 13.8112 58.5203 13.66V10.5L59.6003 9.26L63.6003 14.74H65.6003V14.34C65.1822 14.2449 64.8045 14.021 64.5203 13.7L64.4403 13.66ZM63.3203 29.66L59.3203 24.22L62.5203 20.62C62.7664 20.286 63.1192 20.0461 63.5203 19.94V19.54H61.8403L57.4003 24.74V20.66C57.3901 20.5088 57.4322 20.3586 57.5196 20.2348C57.607 20.111 57.7344 20.021 57.8803 19.98V19.58H55.6003V19.98C55.7462 20.021 55.8736 20.111 55.961 20.2348C56.0484 20.3586 56.0905 20.5088 56.0803 20.66V29.66C56.0905 29.8112 56.0484 29.9614 55.961 30.0852C55.8736 30.209 55.7462 30.299 55.6003 30.34V30.74H57.8803V30.34C57.7344 30.299 57.607 30.209 57.5196 30.0852C57.4322 29.9614 57.3901 29.8112 57.4003 29.66V26.5L58.4803 25.26L62.4803 30.74H64.4803V30.34C64.0407 30.2724 63.6418 30.0444 63.3603 29.7L63.3203 29.66ZM29.7203 8.22C29.1858 8.2114 28.6513 8.2381 28.1203 8.3V4.78H32.0003C32.1515 4.7698 32.3017 4.8119 32.4255 4.8993C32.5493 4.9867 32.6393 5.1141 32.6803 5.26H33.0803V3.58H26.3203V3.98C26.4611 4.0163 26.5854 4.0994 26.6726 4.2158C26.7599 4.3321 26.8049 4.4747 26.8003 4.62V13.62C26.8105 13.7712 26.7684 13.9214 26.681 14.0452C26.5936 14.169 26.4662 14.259 26.3203 14.3V14.7H29.8003C32.6403 14.7 34.1203 13.58 34.1203 11.5V11.38C34.1203 9.26 32.6403 8.22 29.7203 8.22ZM32.7203 11.54C32.7478 11.8305 32.6997 12.1232 32.5805 12.3896C32.4613 12.6559 32.2752 12.8869 32.0403 13.06C31.3332 13.4506 30.5244 13.6179 29.7203 13.54H28.1203V9.42C28.8003 9.42 29.3203 9.34 29.7203 9.34C30.5241 9.2676 31.3313 9.4346 32.0403 9.82C32.269 9.9987 32.4505 10.2307 32.569 10.4956C32.6875 10.7605 32.7395 11.0504 32.7203 11.34V11.54ZM129.44 24.22C128.905 24.2114 128.371 24.2381 127.84 24.3V20.78H131.72C131.871 20.7698 132.021 20.8119 132.145 20.8993C132.269 20.9867 132.359 21.1141 132.4 21.26H132.8V19.62H126.04V20.02C126.181 20.0563 126.305 20.1394 126.392 20.2558C126.48 20.3721 126.525 20.5147 126.52 20.66V29.66C126.53 29.8112 126.488 29.9614 126.401 30.0852C126.313 30.209 126.186 30.299 126.04 30.34V30.74H129.52C132.36 30.74 133.84 29.62 133.84 27.54V27.5C133.84 25.34 132.36 24.26 129.44 24.26V24.22ZM132.44 27.58C132.463 27.8758 132.413 28.1729 132.295 28.4449C132.176 28.7169 131.993 28.9556 131.76 29.14C131.053 29.5306 130.244 29.6979 129.44 29.62H127.84V25.5C128.52 25.5 129.04 25.42 129.44 25.42C130.244 25.3476 131.051 25.5146 131.76 25.9C131.989 26.0787 132.17 26.3107 132.289 26.5756C132.407 26.8405 132.459 27.1304 132.44 27.42V27.58ZM64.5203 19.58V21.22H65.0003C65.0413 21.0741 65.1313 20.9467 65.2551 20.8593C65.3789 20.7719 65.5291 20.7298 65.6803 20.74H67.8003V29.7C67.8106 29.8512 67.7684 30.0014 67.681 30.1252C67.5936 30.249 67.4662 30.339 67.3203 30.38V30.78H69.6003V30.38C69.4544 30.339 69.327 30.249 69.2396 30.1252C69.1522 30.0014 69.1101 29.8512 69.1203 29.7V20.78H71.2803C71.4315 20.7698 71.5817 20.8119 71.7055 20.8993C71.8293 20.9867 71.9193 21.1141 71.9603 21.26H72.3603V19.62H64.5603L64.5203 19.58ZM98.9203 19.58V21.22H99.3203C99.3613 21.0741 99.4513 20.9467 99.5753 20.8593C99.6993 20.7719 99.8493 20.7298 100 20.74H102.16V29.7C102.17 29.8512 102.128 30.0014 102.041 30.1252C101.953 30.249 101.826 30.339 101.68 30.38V30.78H104V30.38C103.854 30.339 103.727 30.249 103.639 30.1252C103.552 30.0014 103.51 29.8512 103.52 29.7V20.78H105.68C105.831 20.7698 105.981 20.8119 106.105 20.8993C106.229 20.9867 106.319 21.1141 106.36 21.26H106.76V19.62L98.9203 19.58ZM120.24 19.5H118.64L116.92 19.58V19.98C117.066 20.021 117.193 20.111 117.281 20.2348C117.368 20.3586 117.41 20.5088 117.4 20.66V29.66C117.41 29.8112 117.368 29.9614 117.281 30.0852C117.193 30.209 117.066 30.299 116.92 30.34V30.74H119.2V30.3C119.054 30.259 118.927 30.169 118.839 30.0452C118.752 29.9214 118.71 29.7712 118.72 29.62V26.22C119.36 26.22 119.84 26.3 120.2 26.3C123 26.3 124.4 25.18 124.4 22.94V22.74C124.4 20.58 123.04 19.5 120.24 19.5ZM123.12 22.94C123.146 23.2597 123.099 23.5811 122.981 23.8793C122.863 24.1776 122.678 24.4447 122.44 24.66C121.79 25.0499 121.036 25.2314 120.28 25.18L118.8 25.1V20.7C119.32 20.7 119.8 20.62 120.28 20.62C121.032 20.5591 121.785 20.7264 122.44 21.1C122.676 21.29 122.862 21.5355 122.981 21.8146C123.1 22.0938 123.147 22.3979 123.12 22.7V22.94ZM148 19.5H146.4L144.68 19.58V19.98C144.826 20.021 144.953 20.111 145.041 20.2348C145.128 20.3586 145.17 20.5088 145.16 20.66V29.66C145.17 29.8112 145.128 29.9614 145.041 30.0852C144.953 30.209 144.826 30.299 144.68 30.34V30.74H146.96V30.3C146.814 30.259 146.687 30.169 146.599 30.0452C146.512 29.9214 146.47 29.7712 146.48 29.62V26.22C147.12 26.22 147.6 26.3 147.96 26.3C150.76 26.3 152.16 25.18 152.16 22.94V22.74C152.16 20.58 150.8 19.5 148 19.5ZM150.84 22.94C150.866 23.2597 150.819 23.5811 150.701 23.8793C150.583 24.1776 150.398 24.4447 150.16 24.66C149.51 25.0499 148.756 25.2314 148 25.18L146.52 25.1V20.7C147.04 20.7 147.52 20.62 148 20.62C148.752 20.5591 149.505 20.7264 150.16 21.1C150.396 21.29 150.582 21.5355 150.701 21.8146C150.82 22.0938 150.867 22.3979 150.84 22.7V22.94ZM153.64 19.62V20.02C153.786 20.061 153.913 20.151 154.001 20.2748C154.088 20.3986 154.13 20.5488 154.12 20.7V29.7C154.13 29.8512 154.088 30.0014 154.001 30.1252C153.913 30.249 153.786 30.339 153.64 30.38V30.78H155.92V30.34C155.774 30.299 155.647 30.209 155.559 30.0852C155.472 29.9614 155.43 29.8112 155.44 29.66V20.78H158.96C159.111 20.7698 159.261 20.8119 159.385 20.8993C159.509 20.9867 159.599 21.1141 159.64 21.26H160.04V19.62H153.64Z" fill="white"/>
<path d="M17.5688 23.6094V24.4951C17.5688 26.186 13.6234 27.5548 8.79222 27.5548C3.96112 27.5548 0.015625 26.186 0.015625 24.4951V23.6094H17.5688ZM0.015625 30.4535C0.015625 30.212 3.96112 29.9704 8.79222 29.9704C13.6234 29.9704 17.5688 30.212 17.5688 30.4535V31.0172C17.5688 31.2587 13.6234 31.5003 8.79222 31.5003C3.96112 31.4198 0.015625 31.1782 0.015625 30.9367V30.4535Z" fill="white"/>
<path d="M17.1666 12.1753C18.777 7.5857 16.3614 2.5935 11.7718 0.98312C10.9183 0.66909 10.0245 0.5 9.11456 0.5H8.47046C5.00806 0.66104 1.78736 2.9156 0.499064 6.3779C-1.11134 10.9675 1.30426 15.9597 5.89386 17.5701C6.69906 17.8117 7.50426 17.9727 8.30936 18.0532H9.35616C12.8185 17.8922 15.8783 15.6377 17.1666 12.1753Z" fill="white"/>
<path d="M8.7766 26.7411C13.6238 26.7411 17.5532 25.3748 17.5532 23.6894C17.5532 22.004 13.6238 20.6377 8.7766 20.6377C3.9294 20.6377 0 22.004 0 23.6894C0 25.3748 3.9294 26.7411 8.7766 26.7411Z" fill="white"/>
</svg>
