<svg width="96" height="26" viewBox="0 0 96 26" fill="none" xmlns="http://www.w3.org/2000/svg">
<path d="M76.0606 7.78314L79.6105 5.17815H67.7285V20.8227H79.6105V18.2177H71.1194V14.213H78.3618V11.608H71.1194V7.78314H76.0606Z" fill="white"/>
<path d="M58.7603 11.2768H54.6341V7.78314H61.2214L64.7713 5.17815H51.2432V20.8227H58.3231C62.2938 20.8227 64.5717 19.0316 64.5717 15.9078C64.5717 12.9217 62.5072 11.2768 58.7603 11.2768ZM58.1701 18.2177H54.6341V13.881H58.1701C60.3227 13.881 61.3251 14.6062 61.3251 16.0489C61.3242 17.5235 60.2631 18.2177 58.1701 18.2177Z" fill="white"/>
<path d="M89.236 5.17815H82.7671V20.8227H86.158V16.3913H89.236C93.3641 16.3913 95.9288 14.2302 95.9288 10.777C95.9288 7.32374 93.3649 5.17815 89.236 5.17815ZM89.1635 13.7863H86.158V7.78314H89.1635C91.3359 7.78314 92.5327 8.84906 92.5327 10.7847C92.5327 12.7204 91.3368 13.7863 89.1635 13.7863Z" fill="white"/>
<path d="M45.4225 17.4357C44.5532 17.9132 43.5404 18.1661 42.4957 18.1661C39.4383 18.1661 37.2201 15.9938 37.2201 13.0009C37.2201 10.0079 39.4392 7.83562 42.4957 7.83562C43.6519 7.83562 44.6889 8.15909 45.5798 8.79658L48.0115 7.01231L47.8508 6.87209C46.431 5.62981 44.5333 4.9734 42.3643 4.9734C40.0113 4.9734 37.8751 5.76316 36.3508 7.19814C34.8169 8.64086 33.9727 10.6712 33.9727 12.9148C33.9727 15.1688 34.8143 17.2292 36.3421 18.7158C37.8751 20.2076 40.0061 21.0292 42.3427 21.0292C44.7874 21.0292 46.9218 20.1809 48.3684 18.6367C47.2519 17.8177 46.1743 17.0271 46.1743 17.0271L45.4225 17.4357Z" fill="white"/>
<path d="M23.3904 5.05254C24.0074 5.84574 24.5345 6.71206 24.9553 7.63689L13.057 16.3664L8.08643 13.2641V9.53213L13.057 12.6344L23.3904 5.05254Z" fill="white"/>
<path d="M3.01585 13C3.01585 12.8322 3.02017 12.6662 3.02882 12.5002L0.0164189 12.3505C0.0060492 12.5655 0 12.7823 0 13C0 16.59 1.46126 19.8402 3.82469 22.1923L5.96085 20.0656C4.14183 18.2556 3.01585 15.7564 3.01585 13Z" fill="white"/>
<path d="M13.0571 3.00331C13.2256 3.00331 13.3924 3.00933 13.5591 3.01707L13.7095 0.0163459C13.4935 0.00602231 13.2757 0 13.0571 0C9.45102 0 6.18629 1.45477 3.82373 3.80769L5.95989 5.93435C7.77804 4.12428 10.2892 3.00331 13.0571 3.00331Z" fill="white"/>
<path d="M13.0572 22.9975C12.8887 22.9975 12.7219 22.9932 12.5552 22.9846L12.4048 25.9837C12.6208 25.994 12.8386 26 13.0572 26C16.6633 26 19.928 24.5452 22.2906 22.1923L20.1544 20.0656C18.3363 21.8757 15.8259 22.9975 13.0572 22.9975Z" fill="white"/>
<path d="M18.7181 4.748L21.2578 2.88459C19.0162 1.0814 16.1637 0 13.0571 0V3.00331C15.1561 3.00331 17.1056 3.64767 18.7181 4.748Z" fill="white"/>
<path d="M26.1152 13C26.1152 12.2051 26.0435 11.4265 25.9061 10.6712L23.095 12.7333C23.0976 12.8219 23.0985 12.9105 23.0985 13C23.0985 15.9353 21.8213 18.579 19.7905 20.4098L21.8169 22.6397C24.4569 20.2618 26.1152 16.824 26.1152 13Z" fill="white"/>
<path d="M13.0572 22.9975C10.1088 22.9975 7.45326 21.726 5.61436 19.7043L3.37451 21.7217C5.76386 24.3491 9.21697 26 13.0572 26V22.9975Z" fill="white"/>
<path d="M6.32379 5.59022L4.29737 3.36033C1.65829 5.73906 0 9.17682 0 13H3.01672C3.01585 10.0646 4.29305 7.42094 6.32379 5.59022Z" fill="white"/>
</svg>
