<svg width="155" height="18" viewBox="0 0 155 18" fill="none" xmlns="http://www.w3.org/2000/svg">
<path d="M6.14038 16.5901H10.6115V6.12006H16.7519V2.31006H0V6.12006H6.14038V16.5901ZM30.3144 2.31006L22.8625 10.6201V2.31006H18.5404V16.5901H22.3558L29.8077 8.28006V16.5901H34.1298V2.31006H30.3144ZM41.7308 11.2801H48.676V16.5901H52.9981V2.31006H48.676V7.53006H41.7308V2.31006H37.4087V16.5901H41.7308V11.2801ZM65.0255 16.5901C66.0091 16.5901 66.9034 16.5001 67.738 16.2601C68.8228 15.9834 69.781 15.3415 70.4534 14.4411C71.1257 13.5406 71.4718 12.4358 71.4341 11.3101C71.4814 10.2676 71.1898 9.23803 70.6035 8.37731C70.0172 7.51659 69.1682 6.87161 68.1851 6.54006C67.1624 6.22648 66.0932 6.09451 65.0255 6.15006H60.5841V2.31006H56.262V16.5901H65.0255ZM60.5841 9.51006H64.2803C64.8764 9.51006 65.4428 9.51006 65.9495 9.69006C66.6649 9.93006 67.0822 10.5301 67.0822 11.2501C67.0822 12.0001 66.6649 12.6301 65.9793 12.9301C65.5024 13.1401 65.0255 13.1401 64.2803 13.1401H60.5841V9.51006ZM77.9918 11.1901H79.1841L84.3409 16.5901H90.0938L82.9101 9.15006L89.8255 2.31006H84.4005L79.1841 7.68006H77.9918V2.31006H73.6697V16.5901H77.9918V11.1901Z" fill="white"/>
<path d="M98.9914 1.92C93.1789 1.92 89.6914 5.22 89.6914 9.48C89.6914 13.74 93.1789 17.04 98.9914 17.04C104.774 17.04 108.262 13.74 108.262 9.48C108.262 5.22 104.774 1.92 98.9914 1.92ZM98.9914 13.56C96.1001 13.56 94.252 11.82 94.252 9.48C94.252 7.14 96.1001 5.43 98.9914 5.43C101.853 5.43 103.731 7.14 103.731 9.48C103.731 11.82 101.853 13.56 98.9914 13.56ZM122.659 2.94V1.5H118.337V2.94C112.912 3.06 109.663 5.37 109.663 9.45C109.663 13.53 112.912 15.66 118.337 15.78V17.22H122.659V15.78C128.114 15.66 131.363 13.53 131.363 9.45C131.363 5.37 128.114 3.06 122.659 2.94ZM118.337 12.72C115.356 12.6 114.044 11.37 114.044 9.45C114.044 7.53 115.356 6.15 118.337 6.03V12.72ZM122.659 12.72V6.03C125.669 6.15 126.951 7.53 126.951 9.45C126.951 11.37 125.669 12.6 122.659 12.72ZM145.745 2.94V1.5H141.423V2.94C135.998 3.06 132.749 5.37 132.749 9.45C132.749 13.53 135.998 15.66 141.423 15.78V17.22H145.745V15.78C151.2 15.66 154.449 13.53 154.449 9.45C154.449 5.37 151.2 3.06 145.745 2.94ZM141.423 12.72C138.442 12.6 137.13 11.37 137.13 9.45C137.13 7.53 138.442 6.15 141.423 6.03V12.72ZM145.745 12.72V6.03C148.755 6.15 150.037 7.53 150.037 9.45C150.037 11.37 148.755 12.6 145.745 12.72Z" fill="white"/>
</svg>
