<svg width="80" height="24" viewBox="0 0 80 24" fill="none" xmlns="http://www.w3.org/2000/svg">
<path fill-rule="evenodd" clip-rule="evenodd" d="M5.59899 23.6137C6.78941 21.5832 7.44515 17.7202 7.69735 10.955H8.56494C8.81715 17.7301 9.47289 21.5931 10.6532 23.6137C9.86633 23.8613 9.00883 24 8.13115 24C7.25347 24 6.40605 23.8712 5.59899 23.6137ZM32.5448 19.8399H29.9016V11.8366H35.3493C38.1337 11.8366 38.1337 14.085 38.1337 14.5803C38.1337 15.1052 38.1337 17.532 35.3493 17.532H32.5448V19.8399ZM32.5347 13.8176V15.5411H34.4313C34.7642 15.5411 35.5006 15.5411 35.5006 14.6496C35.5006 13.8275 34.7541 13.8275 34.4615 13.8275H32.5347V13.8176ZM36.8222 19.8399H39.5965L40.2421 18.1956H43.198L43.8235 19.8399H48.2522L50.3506 14.0652L52.4489 19.8399H55.2333L51.773 11.8366H48.8777L46.0227 18.5027L43.2081 11.8366H40.2421L36.8222 19.8399ZM41.715 14.0949L42.5624 16.3533H40.8777L41.6948 14.0751L41.715 14.0949ZM77.0139 14.8774C79.7982 14.8774 79.7982 16.4325 79.7982 17.3042C79.7982 18.2154 79.7982 19.8498 77.0441 19.8498H71.6772V11.8465H79.4048V13.8473H74.3203V14.8873H77.0139V14.8774ZM76.5801 17.9777C77.1652 17.9777 77.1652 17.5221 77.1652 17.3339C77.1652 17.1556 77.1652 16.7495 76.57 16.7495H74.3203V17.9876H76.5801V17.9777ZM25.3115 19.8399H22.4464L23.7478 17.5815L20.4792 11.8366H23.4351L25.1299 15.2439L26.8348 11.8366H29.6999L25.3115 19.8399ZM61.71 19.8399H58.0984C56.111 19.8399 54.5675 18.2352 54.5675 15.9472C54.5675 13.3719 56.1211 11.8366 58.1286 11.8366H61.71V13.8374H59.3997C57.9672 13.8374 57.2106 14.2534 57.2106 15.9076C57.2106 17.5518 57.9874 17.8589 59.3997 17.8589H61.71V19.8399ZM71.1425 19.8399H68.4994V14.194L65.4124 19.8399H62.2547V11.8366H64.9079V17.3438L67.9243 11.8366H71.1425V19.8399ZM8.14124 10.4598C12.1665 10.4598 15.5965 13.1936 15.5965 16.7198C15.5965 17.839 15.2232 18.9781 14.5069 20.0281C12.6003 18.265 10.9155 15.0359 10.2699 11.2125C10.1992 11.1828 9.62421 11.0541 9.18033 11.0244C9.18033 11.579 9.65448 19.7903 12.6103 22.7024C14.7995 21.2662 16.2623 18.7899 16.2623 16.0066C16.2623 12.1832 13.5485 8.9839 9.90668 8.1915C9.71501 5.61618 9.71501 4.57615 9.69483 3.29839H9.04918C9.04918 3.3083 9.07944 6.88403 9.08953 8.06273C8.86759 8.03302 8.64565 8.02311 8.40353 8.0033C8.40353 5.94305 8.40353 2.18902 8.39344 0H7.85876C7.84868 2.18902 7.84868 5.95295 7.84868 8.0033C7.60656 8.01321 7.38462 8.03302 7.16267 8.06273C7.17276 6.88403 7.20303 3.3182 7.20303 3.29839H6.54729C6.54729 4.57615 6.54729 5.61618 6.35561 8.1915C2.71375 8.9839 0 12.1832 0 16.0066C0 18.7998 1.44262 21.2662 3.65195 22.7024C6.60782 19.7903 7.08197 11.579 7.08197 11.0244C6.63808 11.0541 6.06305 11.1828 5.99243 11.2125C5.3367 15.0359 3.66204 18.265 1.75536 20.0281C1.029 18.988 0.665826 17.839 0.665826 16.7198C0.686003 13.1837 4.09584 10.4598 8.14124 10.4598Z" fill="white"/>
</svg>
