<svg width="70" height="25" viewBox="0 0 70 25" fill="none" xmlns="http://www.w3.org/2000/svg">
<g clip-path="url(#clip0_2392_36914)">
<path d="M4.76526 0L3.5732 3.27055H20.0924L21.2845 0H4.76526ZM2.9768 4.90508L1.78474 8.17486H18.304L19.4961 4.90508H2.9768ZM1.19206 9.81014L0 13.08H16.5193L17.7106 9.81014H1.19206Z" fill="white"/>
<path d="M35.1189 14.3262V14.3953C35.8738 14.6728 36.595 15.1581 36.9728 15.4698C38.1401 16.4404 38.6555 17.7227 38.6555 19.3865C38.6555 22.1255 37.2132 24.1009 34.844 24.725C34.1228 24.9328 33.3679 25.0025 31.9594 25.0025H24.7842V4.9679H31.1361C32.4409 4.9679 33.3333 5.0369 34.1228 5.24468C36.4237 5.86877 37.9343 7.46348 37.9343 9.9932C37.9343 11.3453 37.4535 12.4896 36.664 13.2517C36.3208 13.5983 35.84 14.0146 35.1189 14.3262ZM28.7669 16.4404V21.7091H31.514C32.3373 21.7091 33.093 21.6401 33.6428 21.12C34.192 20.5998 34.4323 19.9416 34.4323 19.0748C34.4323 18.4166 34.2603 17.7925 33.917 17.3421C33.3333 16.6141 32.6122 16.4404 31.3765 16.4404H28.7669ZM28.7323 12.9741H30.9641C31.6507 12.9741 31.994 12.9741 32.3373 12.8703C33.265 12.5927 33.8486 11.7616 33.8486 10.6173C33.8486 9.26598 33.2304 8.67605 32.3373 8.39927C31.9594 8.29534 31.5823 8.26048 30.8266 8.26048H28.7323V12.9741ZM44.6296 25.0025V8.32948H38.8958V4.9679H54.8276L53.6948 8.32948H48.6123V25.0025H44.6296ZM56.0633 25.0025V4.9679H68.9738L67.841 8.32948H60.0122V12.7664H63.2055C65.7805 12.7664 67.1199 13.3905 68.0469 14.1875C68.768 14.8116 70.0037 16.1978 70.0037 18.9368C70.0037 21.6401 68.7335 23.1303 67.669 23.8931C66.4333 24.7591 65.1285 25.0025 62.4844 25.0025H56.0633ZM60.0122 21.6401H62.9997C64.1325 21.6401 64.819 21.3626 65.2998 20.7386C65.5402 20.4268 65.8835 19.8718 65.8835 18.8321C65.8835 17.7925 65.5402 17.0645 64.8536 16.5443C64.442 16.2326 63.8921 16.0598 62.9651 16.0598H60.0122V21.6401Z" fill="white"/>
</g>
<defs>
<clipPath id="clip0_2392_36914">
<rect width="70" height="25" fill="white"/>
</clipPath>
</defs>
</svg>
