<svg width="39" height="24" viewBox="0 0 39 24" fill="none" xmlns="http://www.w3.org/2000/svg">
<g clip-path="url(#clip0_2392_36858)">
<path d="M24.0205 2.64611L13.9116 2.62848L14.1387 21.3545L24.2475 21.3722L24.0205 2.64611Z" fill="white" fill-opacity="0.52"/>
<path d="M14.5237 12.0332C14.4768 8.2246 16.1771 4.84971 18.8275 2.66874C16.8403 1.07553 14.3448 0.110617 11.6352 0.105729C5.21623 0.0941474 0.0885174 5.41679 0.169561 12.0073C0.250605 18.5978 5.50945 23.9392 11.9285 23.9507C14.638 23.9556 17.1099 22.9997 19.058 21.4136C16.3543 19.2561 14.5705 15.8418 14.5237 12.0332Z" fill="white"/>
<path d="M37.9865 11.9914C38.0689 18.5819 32.9424 23.905 26.5234 23.8939C23.8138 23.8892 21.3181 22.9245 19.3305 21.3314C22.0127 19.1503 23.68 15.7752 23.6323 11.9666C23.5847 8.15801 21.8005 4.77696 19.0959 2.58654C21.0436 1.00027 23.5154 0.0441351 26.2249 0.0488202C32.6439 0.0599196 37.9044 5.43403 37.9865 11.9914Z" fill="white"/>
</g>
<defs>
<clipPath id="clip0_2392_36858">
<rect width="38.0029" height="23.9992" fill="white" transform="matrix(1 0 0.00627773 0.99998 0 0)"/>
</clipPath>
</defs>
</svg>
