<svg width="61" height="17" viewBox="0 0 61 17" fill="none" xmlns="http://www.w3.org/2000/svg">
<g clip-path="url(#clip0_2543_37464)">
<path fill-rule="evenodd" clip-rule="evenodd" d="M16.4376 3.2344e-07V0.0074239C16.43 0.0074239 14.0549 2.83187e-07 13.4215 2.2345C12.8409 4.28341 11.2047 9.94017 11.1595 10.0961H10.707C10.707 10.0961 9.03313 4.3131 8.44499 2.22707C7.81162 -0.00742333 5.42892 3.2344e-07 5.42892 3.2344e-07H0V17H5.42892V6.90393H5.65513H5.88134L9.04821 17H12.8183L15.9852 6.91135H16.4376V17H21.8665V3.2344e-07H16.4376Z" fill="white"/>
<path fill-rule="evenodd" clip-rule="evenodd" d="M36.2684 0C36.2684 0 34.6774 0.141048 33.9309 1.78166L30.0854 10.0961H29.633V0H24.2041V17H29.3314C29.3314 17 30.9978 16.8515 31.7443 15.2183L35.5144 6.90393H35.9668V17H41.3957V0H36.2684Z" fill="white"/>
<path fill-rule="evenodd" clip-rule="evenodd" d="M43.8086 7.72058V17.0001H49.2375V11.5808H55.1189C57.6825 11.5808 59.8541 9.96993 60.6609 7.72058H43.8086Z" fill="white"/>
<path fill-rule="evenodd" clip-rule="evenodd" d="M55.1187 0H43.0469C43.6501 3.23668 46.1157 5.83493 49.3052 6.68122C50.0291 6.87424 50.7906 6.97817 51.5748 6.97817H60.8794C60.9623 6.59214 61 6.19869 61 5.79039C61 2.59083 58.3685 0 55.1187 0Z" fill="white"/>
</g>
<defs>
<clipPath id="clip0_2543_37464">
<rect width="61" height="17" fill="white"/>
</clipPath>
</defs>
</svg>
