<svg width="56" height="18" viewBox="0 0 56 18" fill="none" xmlns="http://www.w3.org/2000/svg">
<path d="M52.2338 0.245764H48.7133C47.6489 0.245764 46.8302 0.573702 46.339 1.6395L39.6255 16.9706H44.3741C44.3741 16.9706 45.1928 14.921 45.3565 14.4291C45.8478 14.4291 50.5145 14.4291 51.1694 14.4291C51.3332 15.003 51.7426 16.8886 51.7426 16.8886H55.9999L52.2338 0.245764ZM46.6665 10.9857C47.0758 10.0019 48.4677 6.31262 48.4677 6.31262C48.4677 6.3946 48.877 5.3288 49.0408 4.75491L49.3683 6.23063C49.3683 6.23063 50.2689 10.2479 50.4326 11.0677H46.6665V10.9857Z" fill="white"/>
<path d="M39.9542 11.4778C39.9542 14.9212 36.843 17.2167 32.0126 17.2167C29.9658 17.2167 28.0009 16.8068 26.9365 16.3149L27.5915 12.5436L28.1646 12.7896C29.6383 13.4455 30.6208 13.6914 32.4219 13.6914C33.7319 13.6914 35.1237 13.1995 35.1237 12.0517C35.1237 11.3139 34.5506 10.822 32.7494 10.0021C31.0301 9.18227 28.7377 7.87051 28.7377 5.49296C28.7377 2.21358 31.9307 0 36.4337 0C38.153 0 39.6267 0.327938 40.5273 0.737861L39.8723 4.34518L39.5448 4.01724C38.7261 3.6893 37.6618 3.36137 36.1062 3.36137C34.3869 3.44335 33.5682 4.18121 33.5682 4.83709C33.5682 5.57495 34.5506 6.14884 36.1062 6.8867C38.7261 8.11647 39.9542 9.5102 39.9542 11.4778Z" fill="white"/>
<path d="M0 0.409637L0.0818721 0.0816994H7.12287C8.10533 0.0816994 8.84218 0.409637 9.0878 1.47544L10.6434 8.85404C9.0878 4.91879 5.48543 1.72139 0 0.409637Z" fill="white"/>
<path d="M20.5508 0.245882L13.428 16.8887H8.59751L4.50391 2.95137C7.4513 4.83702 9.90746 7.78846 10.8081 9.83807L11.2993 11.5597L15.7204 0.163898H20.5508V0.245882Z" fill="white"/>
<path d="M22.4329 0.163898H26.9359L24.0703 16.8887H19.5674L22.4329 0.163898Z" fill="white"/>
</svg>
