<svg width="20" height="22" viewBox="0 0 20 22" fill="none" xmlns="http://www.w3.org/2000/svg">
<path d="M4.87782 4.67287V1.49689C4.87782 1.21612 4.98576 0.946844 5.1779 0.748307C5.37003 0.549769 5.63062 0.438232 5.90233 0.438232H18.1965C18.4682 0.438232 18.7288 0.549769 18.9209 0.748307C19.113 0.946844 19.221 1.21612 19.221 1.49689V16.3181C19.221 16.5989 19.113 16.8682 18.9209 17.0667C18.7288 17.2653 18.4682 17.3768 18.1965 17.3768H15.1229V20.5528C15.1229 21.1372 14.6619 21.6114 14.0912 21.6114H1.81147C1.67636 21.6123 1.54243 21.5855 1.41736 21.5327C1.29229 21.4799 1.17856 21.4021 1.08269 21.3037C0.986822 21.2053 0.91071 21.0883 0.858728 20.9595C0.806746 20.8306 0.779918 20.6924 0.779785 20.5528L0.782859 5.73153C0.782859 5.14715 1.24389 4.67287 1.81454 4.67287H4.87782ZM6.92684 4.67287H15.1229V15.2595H17.1719V2.55555H6.92684V4.67287Z" fill="white"/>
</svg>
