<svg width="40" height="32" viewBox="0 0 40 32" fill="none" xmlns="http://www.w3.org/2000/svg">
<path d="M17.3972 10.5163C11.3536 9.47189 7.10655 10.613 5.73849 11.314L8.53513 0.906574C9.46734 0.604383 12.0073 0 14.7095 0C18.0873 0 20.8113 0.145052 24.8065 1.08789C27.1188 1.75271 33.2254 2.81401 39.1529 1.74062C36.7194 6.81744 33.5233 9.24706 31.0898 10.2987C28.6564 11.3503 24.9518 11.8217 17.3972 10.5163Z" fill="#2787F5"/>
<path d="M0 31.9477L2.25184 23.6435C7.03397 18.47 15.7847 10.6251 12.5304 20.6336C9.27612 30.6422 2.82085 32.3466 0 31.9477Z" fill="#204D74"/>
<path d="M15.908 13.6711C9.66101 12.9749 5.75056 14.4447 4.57622 15.2667L2.25174 23.6434C5.55686 21.2501 10.3511 20.9962 12.5666 20.9237C14.7821 20.8512 14.8184 20.7787 16.816 20.3798C18.4141 20.0607 20.4965 18.5666 21.3197 17.8776C22.3851 16.8623 24.2035 14.7663 23.2447 14.6502C17.9056 14.2513 17.3608 13.833 15.908 13.6711Z" fill="#2787F5"/>
</svg>
