<?xml version="1.0" encoding="UTF-8" standalone="no"?>
<svg
   width="22"
   height="26"
   viewBox="0 0 22 26"
   fill="none"
   version="1.1"
   id="svg834"
   sodipodi:docname="file.svg"
   inkscape:version="1.1.2 (b8e25be833, 2022-02-05)"
   xmlns:inkscape="http://www.inkscape.org/namespaces/inkscape"
   xmlns:sodipodi="http://sodipodi.sourceforge.net/DTD/sodipodi-0.dtd"
   xmlns="http://www.w3.org/2000/svg"
   xmlns:svg="http://www.w3.org/2000/svg">
  <defs
     id="defs838" />
  <sodipodi:namedview
     id="namedview836"
     pagecolor="#ffffff"
     bordercolor="#666666"
     borderopacity="1.0"
     inkscape:pageshadow="2"
     inkscape:pageopacity="0.0"
     inkscape:pagecheckerboard="0"
     showgrid="false"
     inkscape:zoom="22.627417"
     inkscape:cx="11.181126"
     inkscape:cy="16.130873"
     inkscape:window-width="1920"
     inkscape:window-height="1027"
     inkscape:window-x="-8"
     inkscape:window-y="-8"
     inkscape:window-maximized="1"
     inkscape:current-layer="svg834" />
  <path
     fill-rule="evenodd"
     clip-rule="evenodd"
     d="m 21.0681,9.275 c -0.2878,0 -0.6046,0.00366 -0.8955,0.00701 l -2e-4,10e-6 C 19.9255,9.28487 19.6972,9.2875 19.521,9.2875 c -0.249,0 -0.5313,-0.00239 -0.8487,-0.00509 h -2e-4 C 18.264,9.27895 17.7976,9.275 17.2686,9.275 15.0037,9.2625 13.1349,7.3875 13.1349,5.1 V 1.075 C 13.1349,0.7625 12.8874,0.5 12.5656,0.5 H 5.95668 C 2.875,0.5 0.375,3.0375 0.375,6.1375 v 13.475 c 0,3.25 2.62376,5.8875 5.84158,5.8875 h 9.85152 c 3.0693,0 5.5569,-2.5125 5.5569,-5.6125 V 9.8375 C 21.625,9.525 21.3775,9.275 21.0681,9.275 Z M 20.5139,7.4575 c -1.0174,0.00375 -2.2166,0 -3.0792,-0.00875 -1.3689,0 -2.4963,-1.13875 -2.4963,-2.52125 v -3.295 c 0,-0.53875 0.6472,-0.80625 1.0173,-0.4175 0.6686,0.70212 1.5869,1.66676 2.5014,2.62749 0.9156,0.96178 1.8274,1.91964 2.4813,2.60626 0.3614,0.37875 0.0965,1.0075 -0.4245,1.00875 z"
     fill="#ff5630"
     id="path832"
     sodipodi:nodetypes="sccssscsssssssssssccsscccc" />
</svg>
