<svg width="30" height="30" viewBox="0 0 30 30" fill="none" xmlns="http://www.w3.org/2000/svg">
<path fill-rule="evenodd" clip-rule="evenodd" d="M9.54677 4.24424C6.32552 4.24424 4.24427 6.45299 4.24427 9.86049V20.128C4.24427 21.0842 4.42177 21.938 4.72552 22.6767C4.73864 22.6611 5.02495 22.3122 5.39836 21.8571C6.1277 20.9683 7.18933 19.6746 7.19677 19.668C8.06177 18.6805 9.68552 17.208 11.8168 18.0992C12.2838 18.2929 12.6989 18.5581 13.0811 18.8023C13.1183 18.8261 13.1552 18.8497 13.1918 18.873C13.908 19.3517 14.3293 19.5767 14.7668 19.5392C14.948 19.5142 15.118 19.4605 15.2793 19.3605C15.8876 18.9855 17.4646 16.751 17.9368 16.0818C18.0061 15.9837 18.0516 15.9192 18.0668 15.8992C19.4293 14.1242 21.5293 13.6492 23.2793 14.6992C23.5143 14.8392 25.198 16.0155 25.7555 16.488V9.86049C25.7555 6.45299 23.6743 4.24424 20.4418 4.24424H9.54677ZM20.4418 2.50049C24.663 2.50049 27.4993 5.45299 27.4993 9.86049V20.128C27.4993 20.2388 27.4876 20.3428 27.476 20.4467C27.4678 20.5197 27.4596 20.5927 27.4555 20.668C27.4528 20.7135 27.4515 20.7591 27.4502 20.8046C27.4485 20.8653 27.4468 20.926 27.4418 20.9867C27.4393 21.0105 27.4346 21.0333 27.4299 21.0561C27.4252 21.0789 27.4205 21.1017 27.418 21.1255C27.3768 21.518 27.313 21.893 27.2243 22.2567C27.2033 22.3476 27.1791 22.4352 27.1546 22.5236L27.1493 22.543C27.0493 22.8955 26.9318 23.2317 26.7905 23.553C26.7658 23.607 26.7397 23.6596 26.7136 23.7123C26.6962 23.7474 26.6788 23.7825 26.6618 23.818C26.5093 24.1242 26.3443 24.418 26.153 24.6905C26.1176 24.7409 26.08 24.7882 26.0422 24.8356C26.0173 24.8668 25.9924 24.8982 25.968 24.9305C25.7693 25.188 25.5618 25.4342 25.3268 25.658C25.2798 25.7026 25.2291 25.7434 25.1784 25.7843C25.1467 25.8098 25.115 25.8353 25.0843 25.8617C24.843 26.0692 24.5968 26.268 24.3255 26.438C24.2663 26.4752 24.2034 26.5064 24.1408 26.5375C24.1002 26.5576 24.0598 26.5776 24.0205 26.5992C23.7443 26.7517 23.4655 26.9005 23.1618 27.0155C23.0887 27.0433 23.0109 27.0633 22.9329 27.0835C22.8775 27.0978 22.822 27.1121 22.768 27.1292C22.741 27.1376 22.7139 27.146 22.6869 27.1544C22.4156 27.2388 22.1452 27.323 21.853 27.373C21.6838 27.4027 21.5041 27.414 21.3244 27.4254C21.2466 27.4304 21.1688 27.4353 21.0918 27.4417C21.009 27.4479 20.9278 27.4579 20.8465 27.4679C20.7143 27.4842 20.5819 27.5005 20.4418 27.5005H9.54677C9.07677 27.5005 8.62802 27.453 8.19427 27.3817C8.18583 27.3804 8.17772 27.3791 8.16978 27.3778C8.16243 27.3766 8.15522 27.3754 8.14802 27.3742C6.45677 27.083 5.05302 26.2667 4.06927 25.0355C4.06244 25.0355 4.05975 25.0309 4.05618 25.0247C4.05387 25.0208 4.05119 25.0162 4.04677 25.0117C3.05802 23.7667 2.49927 22.093 2.49927 20.128V9.86049C2.49927 5.45299 5.33802 2.50049 9.54677 2.50049H20.4418ZM13.75 10.6437C13.75 12.3374 12.3329 13.75 10.6311 13.75C9.13519 13.75 7.85976 12.6571 7.5739 11.242C7.52666 11.0297 7.50002 10.8114 7.50002 10.5858C7.50002 8.88003 8.88568 7.49999 10.5984 7.49999C11.4705 7.49999 12.2602 7.86671 12.8258 8.45178C13.3939 9.01635 13.75 9.79443 13.75 10.6437Z" fill="#2787F5"/>
</svg>
