<svg width="154" height="32" viewBox="0 0 154 32" fill="none" xmlns="http://www.w3.org/2000/svg">
<path d="M17.397 10.5163C11.3533 9.47189 7.10633 10.613 5.73828 11.314L8.53492 0.906574C9.46713 0.604383 12.0071 0 14.7093 0C18.0871 0 20.8111 0.145052 24.8063 1.08789C27.1186 1.75271 33.2252 2.81401 39.1526 1.74062C36.7192 6.81744 33.5231 9.24706 31.0896 10.2987C28.6562 11.3503 24.9515 11.8217 17.397 10.5163Z" fill="#2787F5"/>
<path d="M0 31.9477L2.25184 23.6435C7.03397 18.47 15.7847 10.6251 12.5304 20.6336C9.27612 30.6422 2.82085 32.3466 0 31.9477Z" fill="#204D74"/>
<path d="M15.9083 13.6711C9.66122 12.9749 5.75078 14.4447 4.57643 15.2667L2.25195 23.6434C5.55707 21.2501 10.3513 20.9962 12.5668 20.9237C14.7823 20.8512 14.8187 20.7787 16.8163 20.3798C18.4143 20.0607 20.4967 18.5666 21.3199 17.8776C22.3853 16.8623 24.2037 14.7663 23.2449 14.6502C17.9059 14.2513 17.3611 13.833 15.9083 13.6711Z" fill="#2787F5"/>
<path d="M57.5234 14.4518H65.8149V17.6558H57.5234V14.4518ZM57.8195 23.9405H53.8218V6.68823H66.876V9.89223H57.8195V23.9405Z" fill="#102140"/>
<path d="M69.5824 23.9405V6.68823H73.5801V23.9405H69.5824Z" fill="#102140"/>
<path d="M77.6796 23.9405V6.68823H80.9863L91.178 19.1099H89.574V6.68823H93.5223V23.9405H90.2403L80.0239 11.5189H81.6279V23.9405H77.6796Z" fill="#102140"/>
<path d="M95.339 23.9405L103.038 6.68823H106.987L114.711 23.9405H110.515L104.198 8.70922H105.777L99.4354 23.9405H95.339ZM99.1886 20.2436L100.25 17.2121H109.134L110.219 20.2436H99.1886Z" fill="#102140"/>
<path d="M116.503 23.9405V6.68823H119.81L130.001 19.1099H128.397V6.68823H132.346V23.9405H129.063L118.847 11.5189H120.451V23.9405H116.503Z" fill="#102140"/>
<path d="M134.162 23.9405L141.861 6.68823H145.81L153.534 23.9405H149.339L143.021 8.70922H144.601L138.259 23.9405H134.162ZM138.012 20.2436L139.073 17.2121H147.957L149.043 20.2436H138.012Z" fill="#102140"/>
</svg>
