<svg width="22" height="26" viewBox="0 0 22 26" fill="none" xmlns="http://www.w3.org/2000/svg">
<path fill-rule="evenodd" clip-rule="evenodd" d="M21.0681 9.275C20.7803 9.275 20.4635 9.27866 20.1726 9.28201L20.1724 9.28202C19.9255 9.28487 19.6972 9.2875 19.521 9.2875C19.272 9.2875 18.9897 9.28511 18.6723 9.28241H18.6721C18.264 9.27895 17.7976 9.275 17.2686 9.275C15.0037 9.2625 13.1349 7.3875 13.1349 5.1V1.075C13.1349 0.7625 12.8874 0.5 12.5656 0.5H5.95668C2.875 0.5 0.375 3.0375 0.375 6.1375V19.6125C0.375 22.8625 2.99876 25.5 6.21658 25.5H16.0681C19.1374 25.5 21.625 22.9875 21.625 19.8875V9.8375C21.625 9.525 21.3775 9.275 21.0681 9.275ZM3 12V18H4.18713V15.7135H5.82393C6.11172 15.7135 6.36954 15.6705 6.59737 15.5845C6.8312 15.4928 7.02905 15.3668 7.19093 15.2063C7.35282 15.0401 7.47573 14.8453 7.55967 14.6218C7.6436 14.3926 7.68557 14.1375 7.68557 13.8567C7.68557 13.5817 7.6436 13.3295 7.55967 13.1003C7.47573 12.8711 7.35282 12.6762 7.19093 12.5158C7.02905 12.3496 6.8312 12.2235 6.59737 12.1375C6.36954 12.0458 6.11172 12 5.82393 12H3ZM5.71601 14.7335H4.18713V12.9885H5.71601C5.94385 12.9885 6.12372 13.0458 6.25562 13.1605C6.38752 13.2751 6.45347 13.4413 6.45347 13.659V14.0544C6.45347 14.2722 6.38752 14.4413 6.25562 14.5616C6.12372 14.6762 5.94385 14.7335 5.71601 14.7335ZM11.0457 12H8.76141V18H11.0457C11.4534 18 11.8222 17.937 12.1519 17.8109C12.4877 17.6848 12.7725 17.4986 13.0063 17.2521C13.2461 17 13.429 16.6877 13.5549 16.3152C13.6868 15.937 13.7528 15.4986 13.7528 15C13.7528 14.5014 13.6868 14.0659 13.5549 13.6934C13.429 13.3152 13.2461 13.0029 13.0063 12.7564C12.7725 12.5043 12.4877 12.3152 12.1519 12.1891C11.8222 12.063 11.4534 12 11.0457 12ZM12.098 16.6246C11.8402 16.8711 11.4894 16.9943 11.0457 16.9943H9.94854V13.0057H11.0457C11.4894 13.0057 11.8402 13.1318 12.098 13.384C12.3618 13.6304 12.4937 14.0115 12.4937 14.5272V15.4728C12.4937 15.9885 12.3618 16.3725 12.098 16.6246ZM14.962 12H19V13.0057H16.1491V14.4585H18.6313V15.4642H16.1491V18H14.962V12ZM20.5139 7.4575C19.4965 7.46125 18.2973 7.4575 17.4347 7.44875C16.0658 7.44875 14.9384 6.31 14.9384 4.9275V1.6325C14.9384 1.09375 15.5856 0.82625 15.9557 1.215C16.6243 1.91712 17.5426 2.88176 18.4571 3.84249C19.3727 4.80427 20.2845 5.76213 20.9384 6.44875C21.2998 6.8275 21.0349 7.45625 20.5139 7.4575Z" fill="#FF5630"/>
</svg>
