<svg width="246" height="36" viewBox="0 0 246 36" fill="none" xmlns="http://www.w3.org/2000/svg">
<path d="M0 5.23203C0 4.24566 0.799611 3.44604 1.78598 3.44604H19.1996C25.2718 3.44604 30.1942 8.36852 30.1942 14.4407C30.1942 20.5129 25.2718 25.4353 19.1996 25.4353H1.62757C0.728688 25.4353 0 24.7066 0 23.8078V5.23203Z" fill="#03AB60"/>
<path fill-rule="evenodd" clip-rule="evenodd" d="M21.3328 25.2285C20.6427 25.3642 19.9295 25.4353 19.1996 25.4353H2.45157C1.92076 24.9867 1.58238 24.3391 1.52825 23.6295L0.164062 5.74341L20.0168 13.9769C20.8135 14.3073 21.3328 15.085 21.3328 15.9475V25.2285Z" fill="black" fill-opacity="0.04"/>
<path d="M0 5.41528L18.519 14.7519C19.2382 15.1146 19.6919 15.8514 19.6919 16.6568V32.3911C19.6919 33.98 18.0171 35.0113 16.5982 34.2959L1.44358 26.6555C0.558367 26.2092 0 25.3024 0 24.311V5.41528Z" fill="#02FD86"/>
<path d="M0 18.297L16.3937 26.575C16.5043 26.6309 16.574 26.7442 16.574 26.868V30.3992C16.574 30.6438 16.3162 30.8024 16.0979 30.6922L0.540794 22.8366C0.209142 22.6692 0 22.3293 0 21.9577V18.297Z" fill="#28283F"/>
<path d="M12.9639 15.286C12.9639 15.1627 13.0947 15.0834 13.204 15.1405L16.3979 16.8101C16.5062 16.8667 16.574 16.9787 16.574 17.1009V19.9704C16.574 20.217 16.3123 20.3755 16.0938 20.2613L13.14 18.7173C13.0317 18.6607 12.9639 18.5486 12.9639 18.4264V15.286Z" fill="#28283F"/>
<path d="M48.0703 11.7803C49.5338 11.7803 50.8545 12.1194 52.0325 12.7976C53.2194 13.4669 54.1474 14.3995 54.8167 15.5953C55.486 16.7911 55.8207 18.1252 55.8207 19.5976C55.8207 21.0701 55.486 22.4087 54.8167 23.6134C54.1474 24.8092 53.2194 25.7462 52.0325 26.4244C50.8545 27.1026 49.5338 27.4417 48.0703 27.4417C46.5711 27.4417 45.2146 27.0268 44.001 26.1968V32.341H39.9986V12.1953H42.6356L43.3183 13.5472C44.648 12.3693 46.2319 11.7803 48.0703 11.7803ZM44.8443 22.5024C45.6117 23.2698 46.5755 23.6535 47.7356 23.6535C48.8957 23.6535 49.855 23.2698 50.6136 22.5024C51.381 21.7349 51.7648 20.7667 51.7648 19.5976C51.7648 18.4286 51.381 17.4604 50.6136 16.6929C49.855 15.9254 48.8957 15.5417 47.7356 15.5417C46.5755 15.5417 45.6117 15.9299 44.8443 16.7063C44.0858 17.4737 43.7065 18.4375 43.7065 19.5976C43.7065 20.7577 44.0858 21.726 44.8443 22.5024ZM70.7593 12.1685H73.7577V26.9732H70.612L70.264 25.648C68.9165 26.826 67.3191 27.415 65.4719 27.415C64.0083 27.415 62.6831 27.0759 61.4963 26.3976C60.3094 25.7194 59.3813 24.7824 58.712 23.5866C58.0427 22.3819 57.7081 21.0433 57.7081 19.5709C57.7081 18.1073 58.0427 16.7821 58.712 15.5953C59.3813 14.3995 60.3094 13.4669 61.4963 12.7976C62.6831 12.1194 64.0083 11.7803 65.4719 11.7803C67.3548 11.7803 68.9745 12.3827 70.3309 13.5874L70.7593 12.1685ZM62.9018 22.4756C63.6692 23.243 64.633 23.6268 65.7931 23.6268C66.9532 23.6268 67.9126 23.243 68.6711 22.4756C69.4385 21.7081 69.8223 20.7399 69.8223 19.5709C69.8223 18.4018 69.4385 17.4336 68.6711 16.6661C67.9126 15.8987 66.9532 15.5149 65.7931 15.5149C64.633 15.5149 63.6692 15.9031 62.9018 16.6795C62.1433 17.447 61.764 18.4108 61.764 19.5709C61.764 20.731 62.1433 21.6992 62.9018 22.4756ZM87.8396 12.1953H92.0963L85.6443 26.7992C85.0286 28.1913 84.4262 29.2711 83.8372 30.0386C83.2572 30.815 82.579 31.3906 81.8026 31.7654C81.0262 32.1491 80.0847 32.341 78.9782 32.341H77.3317V28.7402H78.7239C79.6698 28.7402 80.3435 28.5661 80.7451 28.2181C81.1556 27.8701 81.5929 27.1249 82.0569 25.9827L82.1105 25.8622L75.8459 12.1953H80.1963L84.1451 21.2976L87.8396 12.1953ZM110.944 11.8472C112.478 11.8472 113.728 12.3916 114.692 13.4803C115.664 14.569 116.151 15.979 116.151 17.7102V27H112.148V18.3795C112.148 17.389 111.956 16.6394 111.573 16.1307C111.198 15.6131 110.649 15.3543 109.926 15.3543C109.034 15.3543 108.333 15.6756 107.825 16.3181C107.325 16.9517 107.075 17.8441 107.075 18.9953V27H103.18V18.3795C103.18 17.389 102.992 16.6394 102.618 16.1307C102.252 15.6131 101.712 15.3543 100.998 15.3543C100.088 15.3543 99.3782 15.6756 98.8695 16.3181C98.3609 16.9517 98.1066 17.8441 98.1066 18.9953V27H94.1042V12.1953H96.8884L97.638 14.0291C98.1646 13.3598 98.816 12.8289 99.5924 12.4362C100.378 12.0436 101.199 11.8472 102.055 11.8472C102.992 11.8472 103.836 12.0569 104.585 12.4764C105.335 12.8869 105.924 13.4669 106.352 14.2165C106.87 13.4848 107.53 12.9092 108.333 12.4897C109.145 12.0614 110.015 11.8472 110.944 11.8472ZM134.195 19.5441C134.195 19.9457 134.168 20.3383 134.114 20.722H122.911C123.08 21.7304 123.482 22.5068 124.115 23.0512C124.758 23.5866 125.565 23.8543 126.538 23.8543C127.225 23.8543 127.841 23.7026 128.385 23.3992C128.939 23.0958 129.367 22.6764 129.67 22.1409H133.874C133.338 23.7562 132.41 25.0412 131.089 25.9961C129.769 26.942 128.251 27.415 126.538 27.415C125.101 27.415 123.794 27.0759 122.616 26.3976C121.447 25.7105 120.528 24.769 119.859 23.5732C119.189 22.3774 118.855 21.0522 118.855 19.5976C118.855 18.1341 119.185 16.8044 119.845 15.6086C120.514 14.4128 121.434 13.4758 122.603 12.7976C123.781 12.1194 125.092 11.7803 126.538 11.7803C128.019 11.7803 129.349 12.1328 130.527 12.8378C131.705 13.5338 132.611 14.4709 133.244 15.6488C133.878 16.8268 134.195 18.1252 134.195 19.5441ZM126.538 15.1937C125.655 15.1937 124.905 15.4391 124.289 15.9299C123.674 16.4207 123.25 17.1079 123.018 17.9913H130.192C129.916 17.09 129.461 16.3984 128.827 15.9165C128.202 15.4346 127.439 15.1937 126.538 15.1937ZM145.466 11.8472C147.143 11.8472 148.477 12.4094 149.468 13.5338C150.459 14.6493 150.954 16.1485 150.954 18.0315V27H146.951V18.674C146.951 16.4609 146.09 15.3543 144.368 15.3543C143.342 15.3543 142.53 15.7023 141.932 16.3984C141.343 17.0856 141.048 18.027 141.048 19.2228V27H137.046V12.1953H139.79L140.566 14.0291C141.138 13.3509 141.847 12.8199 142.695 12.4362C143.551 12.0436 144.475 11.8472 145.466 11.8472ZM161.729 23.4394H163.55V27H160.712C159.088 27 157.803 26.5315 156.857 25.5945C155.92 24.6486 155.452 23.3546 155.452 21.7126V15.4079H152.774V14.5512L158.624 8.32675H159.387V12.1953H163.47V15.4079H159.454V21.1772C159.454 21.9 159.65 22.4577 160.043 22.8504C160.435 23.243 160.998 23.4394 161.729 23.4394ZM171.528 27.415C169.672 27.415 168.173 26.9331 167.03 25.9693C165.897 24.9966 165.326 23.716 165.317 22.1276H169.212C169.221 22.7611 169.449 23.2475 169.895 23.5866C170.35 23.9257 170.948 24.0953 171.689 24.0953C172.278 24.0953 172.773 23.9659 173.174 23.7071C173.585 23.4483 173.79 23.0824 173.79 22.6094C173.79 22.3685 173.719 22.1588 173.576 21.9803C173.442 21.8018 173.228 21.6546 172.933 21.5386C172.639 21.4136 172.349 21.3199 172.063 21.2575C171.778 21.1861 171.403 21.1102 170.939 21.0299C170.52 20.9585 170.167 20.8961 169.881 20.8425C169.596 20.78 169.248 20.6908 168.837 20.5748C168.436 20.4588 168.097 20.3338 167.82 20.2C167.543 20.0572 167.249 19.8698 166.937 19.6378C166.633 19.4058 166.388 19.1514 166.2 18.8748C166.022 18.5892 165.87 18.2457 165.745 17.8441C165.629 17.4425 165.571 17.0008 165.571 16.5189C165.571 15.1178 166.12 13.98 167.218 13.1055C168.315 12.222 169.752 11.7803 171.528 11.7803C173.313 11.7803 174.745 12.2354 175.825 13.1457C176.905 14.047 177.449 15.2383 177.458 16.7197H173.656C173.647 16.1396 173.447 15.7023 173.054 15.4079C172.67 15.1134 172.126 14.9661 171.421 14.9661C170.805 14.9661 170.319 15.0955 169.962 15.3543C169.614 15.6131 169.44 15.9567 169.44 16.385C169.44 16.5457 169.466 16.6929 169.52 16.8268C169.582 16.9517 169.685 17.0632 169.828 17.1614C169.98 17.2506 170.118 17.331 170.243 17.4024C170.377 17.4648 170.573 17.5317 170.832 17.6031C171.1 17.6656 171.314 17.7147 171.474 17.7504C171.644 17.7772 171.898 17.8218 172.237 17.8842C173.674 18.143 174.709 18.4108 175.343 18.6874C176.94 19.4013 177.739 20.6506 177.739 22.4354C177.739 23.9436 177.172 25.1528 176.039 26.063C174.906 26.9643 173.402 27.415 171.528 27.415ZM192.624 12.1953H195.221V25.2866C195.221 27.5979 194.547 29.4184 193.2 30.748C191.852 32.0866 190.005 32.7559 187.658 32.7559C185.65 32.7559 183.977 32.274 182.638 31.3102C181.3 30.3465 180.461 29.0168 180.122 27.3213H184.097C184.311 27.9549 184.749 28.4457 185.409 28.7937C186.078 29.1507 186.806 29.3291 187.591 29.3291C188.635 29.3291 189.514 29.0123 190.228 28.3787C190.942 27.7541 191.299 26.9152 191.299 25.8622V25.3C190.041 26.1835 188.631 26.6252 187.069 26.6252C185.712 26.6252 184.468 26.2995 183.334 25.648C182.21 24.9966 181.322 24.1042 180.67 22.9709C180.028 21.8286 179.707 20.5748 179.707 19.2094C179.707 17.853 180.028 16.6081 180.67 15.4748C181.322 14.3325 182.21 13.4312 183.334 12.7708C184.468 12.1105 185.712 11.7803 187.069 11.7803C188.988 11.7803 190.625 12.4094 191.981 13.6677L192.624 12.1953ZM187.537 23.0512C188.626 23.0512 189.527 22.6898 190.241 21.9669C190.955 21.2352 191.312 20.316 191.312 19.2094C191.312 18.1118 190.955 17.206 190.241 16.4921C189.536 15.7693 188.635 15.4079 187.537 15.4079C186.449 15.4079 185.547 15.7693 184.833 16.4921C184.12 17.206 183.763 18.1118 183.763 19.2094C183.763 20.316 184.115 21.2352 184.82 21.9669C185.534 22.6898 186.44 23.0512 187.537 23.0512ZM211.15 12.1685H214.148V26.9732H211.003L210.655 25.648C209.307 26.826 207.71 27.415 205.863 27.415C204.399 27.415 203.074 27.0759 201.887 26.3976C200.7 25.7194 199.772 24.7824 199.103 23.5866C198.433 22.3819 198.099 21.0433 198.099 19.5709C198.099 18.1073 198.433 16.7821 199.103 15.5953C199.772 14.3995 200.7 13.4669 201.887 12.7976C203.074 12.1194 204.399 11.7803 205.863 11.7803C207.746 11.7803 209.365 12.3827 210.722 13.5874L211.15 12.1685ZM203.293 22.4756C204.06 23.243 205.024 23.6268 206.184 23.6268C207.344 23.6268 208.303 23.243 209.062 22.4756C209.829 21.7081 210.213 20.7399 210.213 19.5709C210.213 18.4018 209.829 17.4336 209.062 16.6661C208.303 15.8987 207.344 15.5149 206.184 15.5149C205.024 15.5149 204.06 15.9031 203.293 16.6795C202.534 17.447 202.155 18.4108 202.155 19.5709C202.155 20.731 202.534 21.6992 203.293 22.4756ZM225.232 23.4394H227.052V27H224.215C222.59 27 221.305 26.5315 220.359 25.5945C219.422 24.6486 218.954 23.3546 218.954 21.7126V15.4079H216.277V14.5512L222.126 8.32675H222.889V12.1953H226.972V15.4079H222.956V21.1772C222.956 21.9 223.153 22.4577 223.545 22.8504C223.938 23.243 224.5 23.4394 225.232 23.4394ZM244.012 19.5441C244.012 19.9457 243.985 20.3383 243.932 20.722H232.728C232.898 21.7304 233.299 22.5068 233.933 23.0512C234.575 23.5866 235.383 23.8543 236.356 23.8543C237.043 23.8543 237.658 23.7026 238.203 23.3992C238.756 23.0958 239.184 22.6764 239.488 22.1409H243.691C243.156 23.7562 242.227 25.0412 240.907 25.9961C239.586 26.942 238.069 27.415 236.356 27.415C234.919 27.415 233.611 27.0759 232.433 26.3976C231.264 25.7105 230.345 24.769 229.676 23.5732C229.007 22.3774 228.672 21.0522 228.672 19.5976C228.672 18.1341 229.002 16.8044 229.663 15.6086C230.332 14.4128 231.251 13.4758 232.42 12.7976C233.598 12.1194 234.91 11.7803 236.356 11.7803C237.837 11.7803 239.167 12.1328 240.345 12.8378C241.522 13.5338 242.428 14.4709 243.062 15.6488C243.695 16.8268 244.012 18.1252 244.012 19.5441ZM236.356 15.1937C235.472 15.1937 234.722 15.4391 234.107 15.9299C233.491 16.4207 233.067 17.1079 232.835 17.9913H240.01C239.733 17.09 239.278 16.3984 238.645 15.9165C238.02 15.4346 237.257 15.1937 236.356 15.1937Z" fill="#F8F8F8"/>
</svg>
